<?xml version="1.0" standalone="no"?>
<!DOCTYPE svg PUBLIC "-//W3C//DTD SVG 20010904//EN"
 "http://www.w3.org/TR/2001/REC-SVG-20010904/DTD/svg10.dtd">
<svg version="1.0" xmlns="http://www.w3.org/2000/svg"
 width="1024.000000pt" height="1024.000000pt" viewBox="0 0 1024.000000 1024.000000"
 preserveAspectRatio="xMidYMid meet">

<g transform="translate(0.000000,1024.000000) scale(0.100000,-0.100000)"
fill="#000000" stroke="none">
<path d="M5181 7194 c-12 -15 -21 -33 -21 -40 0 -11 -18 -14 -76 -14 -210 0
-395 -115 -485 -303 -118 -247 -81 -497 110 -724 75 -91 214 -181 352 -229 56
-19 100 -27 180 -30 58 -2 125 -11 148 -19 128 -45 185 -166 119 -250 -43 -54
-49 -55 -550 -55 -276 0 -481 -5 -507 -11 -81 -18 -154 -61 -222 -128 -99 -99
-151 -215 -165 -367 l-7 -74 -51 0 c-175 -1 -355 -98 -446 -240 -78 -121 -103
-312 -59 -443 42 -126 151 -255 263 -311 116 -58 64 -56 1356 -56 722 0 1208
4 1245 10 76 12 185 66 251 124 179 157 226 415 117 635 -36 72 -131 168 -209
208 -123 65 -86 63 -1085 63 l-906 0 -27 25 c-42 38 -33 109 17 137 17 10 145
14 532 18 l510 5 70 29 c91 38 206 150 254 247 61 125 76 286 36 412 -35 115
-127 245 -225 318 -108 81 -183 107 -344 120 -210 17 -329 78 -392 201 -66
129 15 288 146 288 50 0 60 -20 60 -129 0 -149 -17 -141 314 -141 315 0 340 4
407 69 41 40 49 55 60 109 l13 62 67 0 67 0 62 -66 62 -67 50 51 51 50 -45 54
-46 53 49 54 48 54 -52 58 -52 59 -62 -65 -63 -65 -70 0 -70 0 0 61 c0 34 -5
79 -12 101 -16 55 -83 126 -143 154 -49 23 -57 24 -327 24 l-277 0 -20 -26z
m403 -248 c18 -8 41 -24 50 -37 18 -26 21 -81 6 -110 -13 -24 -61 -49 -94 -49
-33 0 -83 44 -91 80 -9 40 19 94 58 114 39 19 31 19 71 2z m747 -2442 c64 -33
70 -121 11 -161 -26 -17 -84 -18 -1215 -18 l-1189 0 -29 33 c-33 36 -36 60
-14 102 33 64 -58 60 1233 60 1045 0 1176 -2 1203 -16z"/>
<path d="M3969 3621 l-29 -29 0 -346 0 -345 24 -28 c19 -22 32 -28 66 -28 52
0 80 30 80 85 0 21 3 52 6 69 l7 32 92 -90 c89 -87 94 -91 137 -91 54 0 78 22
78 69 0 28 -14 48 -86 123 l-85 90 85 88 c90 92 101 115 71 157 -19 27 -75 39
-106 23 -13 -7 -61 -49 -106 -93 l-83 -82 0 173 c0 189 -7 218 -55 240 -41 19
-64 14 -96 -17z"/>
<path d="M2428 3556 c-106 -38 -168 -132 -153 -232 13 -87 78 -143 252 -217
49 -21 63 -50 37 -78 -28 -31 -75 -25 -124 16 -32 27 -51 35 -81 35 -76 0
-111 -68 -70 -136 25 -42 75 -71 153 -90 53 -13 75 -14 120 -5 80 17 141 61
172 123 65 130 10 237 -155 304 -117 47 -148 85 -95 119 31 21 66 12 102 -26
55 -58 144 -23 144 57 0 98 -178 174 -302 130z"/>
<path d="M5477 3556 c-60 -22 -107 -65 -133 -120 -29 -61 -30 -107 -5 -161 27
-58 66 -90 166 -134 49 -22 97 -47 107 -55 39 -34 9 -76 -54 -76 -31 0 -46 6
-68 30 -40 43 -73 53 -115 36 -119 -50 -38 -194 127 -227 105 -21 200 14 264
98 39 51 51 109 33 170 -17 62 -67 109 -158 150 -114 51 -122 56 -133 76 -14
28 16 57 60 57 24 0 45 -9 69 -30 42 -38 81 -39 122 -4 41 34 41 72 -1 119
-17 20 -50 46 -72 57 -52 27 -157 34 -209 14z"/>
<path d="M2872 3400 c-12 -5 -27 -21 -32 -35 -6 -15 -10 -121 -10 -236 0 -238
5 -259 65 -279 27 -9 40 -9 62 2 45 21 53 50 53 199 0 129 1 137 23 157 29 28
57 28 91 1 26 -20 26 -21 26 -163 0 -128 2 -146 20 -169 42 -53 127 -39 149
24 14 42 14 301 0 350 -38 124 -187 189 -284 123 -35 -23 -39 -24 -48 -9 -8
16 -66 46 -84 44 -4 0 -18 -4 -31 -9z"/>
<path d="M6074 3401 c-147 -36 -244 -205 -201 -352 20 -66 80 -140 140 -171
123 -62 317 -7 317 90 0 37 -10 49 -52 66 -32 14 -40 14 -72 1 -69 -29 -124
-16 -151 35 -30 57 -9 127 45 155 38 19 48 19 95 -5 43 -22 72 -19 104 11 56
52 -4 146 -108 168 -58 12 -72 12 -117 2z"/>
<path d="M6962 3404 c-7 -3 -19 -19 -27 -34 -12 -24 -15 -84 -15 -332 0 -167
5 -321 10 -343 18 -77 87 -99 141 -46 28 29 29 32 29 136 l0 107 25 -16 c61
-40 201 -4 261 67 63 75 82 190 48 289 -46 137 -207 212 -308 143 l-37 -25
-22 25 c-22 25 -78 41 -105 29z m281 -198 c47 -43 48 -106 2 -152 -34 -34 -79
-32 -116 5 -84 84 27 227 114 147z"/>
<path d="M3493 3380 c-45 -27 -66 -63 -58 -99 10 -47 25 -54 107 -46 66 6 75
5 96 -15 12 -11 22 -24 22 -28 0 -4 -24 -6 -53 -4 -76 5 -133 -13 -180 -57
-35 -34 -41 -44 -44 -92 -5 -64 15 -108 71 -153 50 -41 138 -49 190 -16 l36
22 32 -27 c38 -32 81 -29 116 11 21 24 22 33 22 187 0 136 -3 169 -19 203 -23
49 -88 107 -140 122 -62 19 -161 15 -198 -8z m161 -316 c23 -23 20 -43 -9 -56
-31 -14 -78 -1 -83 23 -8 40 61 65 92 33z"/>
<path d="M4619 3375 c-93 -48 -149 -147 -149 -259 1 -90 68 -194 154 -238 64
-33 168 -36 234 -8 94 41 118 99 59 144 -39 30 -66 32 -109 10 -20 -11 -45
-14 -70 -11 -38 5 -78 30 -78 49 0 4 67 8 149 8 182 0 185 2 179 96 -5 86 -58
165 -137 206 -72 38 -164 39 -232 3z m181 -165 c5 -9 8 -19 6 -21 -3 -2 -36
-2 -76 -1 -78 4 -87 15 -31 44 38 19 85 9 101 -22z"/>
<path d="M6469 3377 c-65 -44 -71 -105 -14 -143 21 -14 31 -15 51 -5 44 20 98
14 124 -14 l23 -25 -63 0 c-119 0 -195 -44 -220 -127 -17 -57 -6 -104 38 -153
61 -69 149 -82 230 -34 28 16 30 16 50 -4 30 -30 70 -38 101 -21 48 27 53 50
48 226 -6 185 -17 218 -91 271 -79 57 -214 71 -277 29z m165 -303 c19 -7 21
-45 4 -62 -24 -24 -98 -7 -98 23 0 34 51 55 94 39z"/>
<path d="M7649 3375 c-162 -84 -200 -312 -74 -439 24 -24 61 -51 82 -62 54
-26 163 -31 218 -10 42 16 105 75 105 97 0 6 -15 26 -34 45 -38 38 -66 42
-115 18 -38 -19 -105 -14 -129 10 -9 9 -14 17 -11 19 2 3 69 7 148 10 82 4
149 11 157 18 43 36 19 157 -46 232 -78 88 -202 114 -301 62z m164 -152 c29
-27 19 -33 -58 -33 -63 0 -73 2 -69 15 16 42 89 52 127 18z"/>
<path d="M5005 2895 c-27 -26 -31 -54 -13 -88 22 -41 38 -46 159 -47 108 0
117 1 137 23 30 32 29 87 -1 115 -21 20 -34 22 -141 22 -111 0 -118 -1 -141
-25z"/>
</g>
</svg>
