<?xml version="1.0" encoding="UTF-8" standalone="no"?>
<svg
   version="1.0"
   width="876pt"
   height="744.73999pt"
   viewBox="0 0 876 744.74001"
   preserveAspectRatio="xMidYMid"
   id="svg56"
   xmlns="http://www.w3.org/2000/svg"
   xmlns:svg="http://www.w3.org/2000/svg">
  <defs
     id="defs56" />
  <g
     transform="matrix(0.1,0,0,-0.1,-471,893.55)"
     fill="#000000"
     stroke="none"
     id="g56">
    <path
       d="m 2,10205 c -1,-13 2,-26 7,-30 5,-3 7,4 4,14 -4,15 0,19 14,17 10,-2 12,-1 5,1 -7,3 -10,9 -7,14 4,5 0,9 -7,9 -8,0 -15,-11 -16,-25 z"
       id="path1" />
    <path
       d="m 101,10217 c -8,-10 -7,-14 2,-14 8,0 14,6 14,14 0,7 -1,13 -2,13 -2,0 -8,-6 -14,-13 z"
       id="path2" />
    <path
       d="m 136,10193 c -6,-14 -5,-15 5,-6 7,7 10,15 7,18 -3,3 -9,-2 -12,-12 z"
       id="path3" />
    <path
       d="m 17745,10189 c -4,-6 -5,-12 -2,-15 2,-3 7,2 10,11 7,17 1,20 -8,4 z"
       id="path4" />
    <path
       d="m 224,10168 -19,-23 25,20 c 14,11 27,21 29,22 2,2 0,3 -6,3 -5,0 -18,-10 -29,-22 z"
       id="path5" />
    <path
       d="m 17707,10169 c 7,-7 15,-10 18,-7 3,3 -2,9 -12,12 -14,6 -15,5 -6,-5 z"
       id="path6" />
    <path
       d="m 36,10158 c 3,-5 -2,-19 -12,-31 -10,-12 -12,-16 -4,-10 11,10 17,10 29,0 14,-10 14,-10 3,5 -9,11 -10,18 -2,23 15,9 12,22 -5,22 -8,0 -12,-4 -9,-9 z"
       id="path7" />
    <path
       d="m 115,10161 c -3,-5 -2,-12 3,-15 5,-3 9,1 9,9 0,17 -3,19 -12,6 z"
       id="path8" />
    <path
       d="m 150,10150 c -9,-6 -10,-10 -3,-10 6,0 15,5 18,10 8,12 4,12 -15,0 z"
       id="path9" />
    <path
       d="m 32,10064 c -7,-8 -8,-14 -3,-14 10,0 25,19 20,25 -2,1 -10,-3 -17,-11 z"
       id="path10" />
    <path
       d="m 21,10028 c -1,-20 14,-24 25,-6 4,6 3,8 -4,4 -5,-3 -13,0 -15,6 -3,8 -6,6 -6,-4 z"
       id="path11" />
    <path
       d="m 17786,10013 c -6,-14 -5,-15 5,-6 7,7 10,15 7,18 -3,3 -9,-2 -12,-12 z"
       id="path12" />
    <path
       d="m 8810,8934 c -166,-11 -434,-59 -665,-119 -628,-163 -1155,-461 -1585,-895 -319,-322 -600,-760 -765,-1190 -51,-133 -127,-391 -150,-509 -19,-96 -57,-350 -62,-418 l -6,-83 h 172 171 v -90 -90 h -177 -176 l 7,-202 c 3,-112 13,-250 22,-308 33,-229 100,-505 156,-645 l 24,-60 302,-3 302,-2 v 140 140 h 170 170 v -371 c 0,-296 -3,-369 -12,-362 -16,13 -144,17 -238,7 -62,-6 -70,-9 -72,-28 -1,-11 -4,29 -7,89 l -6,110 -247,3 c -137,1 -248,0 -248,-2 0,-6 82,-139 158,-256 69,-106 175,-251 260,-354 l 65,-79 -89,-83 c -49,-46 -91,-83 -94,-83 -3,0 -90,69 -195,154 -104,85 -192,155 -195,155 -3,0 -5,-92 -5,-205 v -205 h -78 -79 l -151,145 c -83,80 -154,145 -159,145 -4,0 -8,-65 -8,-145 v -145 h -305 -305 v -30 -30 l 1537,2 1536,3 23,88 c 78,293 341,646 614,822 240,156 389,208 722,255 79,12 163,27 188,35 99,33 160,116 160,219 0,124 -101,228 -249,256 -33,6 -310,10 -715,10 -736,0 -784,3 -993,64 -288,83 -563,252 -733,450 -192,224 -294,447 -351,770 -18,103 -21,143 -15,266 3,80 8,163 11,185 34,247 122,485 266,717 65,106 100,148 229,282 321,331 713,549 1155,641 118,25 467,53 524,42 20,-4 34,5 74,49 65,71 191,148 297,181 76,24 101,27 235,28 130,0 160,-3 225,-23 104,-33 227,-96 312,-160 l 72,-54 35,20 c 20,11 74,31 121,44 82,22 98,23 465,23 378,0 381,0 507,-28 69,-15 160,-38 202,-52 42,-14 93,-25 114,-25 36,0 36,0 17,19 -11,10 -95,68 -186,129 -381,254 -815,449 -1227,552 -134,33 -127,32 -327,66 -129,21 -187,25 -420,28 -148,2 -295,2 -325,0 z m 1020,-354 v -60 h -66 c -56,0 -65,2 -60,16 3,9 6,36 6,60 v 44 h 60 60 z M 7180,8040 v -60 h -60 -60 v 60 60 h 60 60 z M 6050,6340 v -60 h -60 -60 v 60 60 h 60 60 z m 320,-1257 c 0,-242 -12,-527 -21,-512 -5,9 -43,10 -158,3 -123,-7 -152,-7 -156,4 -3,8 -5,164 -5,348 v 334 h 170 170 z m 1024,-816 c -3,-361 -4,-393 -13,-379 -6,10 -41,12 -149,10 -88,-2 -144,1 -146,7 -3,6 -6,-3 -7,-20 -5,-66 -17,183 -18,388 l -1,217 h 168 167 z m 316,-710 v -53 l -145,-2 -145,-1 v 54 55 h 145 145 z"
       id="path13" />
    <path
       d="m 9292,8217 c -5,-7 -15,-29 -21,-49 -12,-37 -14,-38 -59,-38 -26,0 -56,-3 -67,-6 -16,-4 -25,5 -45,41 -14,25 -32,45 -41,45 -9,0 -45,-11 -80,-24 -49,-19 -63,-29 -61,-43 16,-118 20,-104 -39,-150 l -53,-41 -40,34 -41,35 -25,-29 c -14,-16 -40,-46 -59,-68 -32,-38 -33,-38 -29,-11 l 5,27 h -104 -105 l 6,-47 c 3,-27 8,-79 11,-118 3,-38 10,-95 15,-125 25,-147 51,-298 56,-322 6,-25 3,-28 -22,-30 -46,-2 -76,-5 -120,-13 l -40,-7 -37,129 c -20,70 -57,211 -82,313 -25,101 -47,186 -49,187 -5,5 -93,-9 -105,-17 -9,-5 -9,-14 -1,-34 13,-36 8,-42 -37,-51 -48,-9 -199,-67 -274,-105 l -57,-29 -34,44 c -18,25 -38,45 -44,45 -12,0 -248,-161 -278,-190 -18,-18 -18,-19 14,-47 l 33,-29 -99,-86 c -101,-86 -244,-233 -244,-249 0,-16 -25,-10 -63,17 -31,21 -41,23 -53,13 -15,-12 -141,-200 -150,-223 -3,-7 19,-23 54,-40 l 59,-28 -34,-56 c -18,-31 -47,-91 -65,-134 l -32,-77 -42,6 c -43,6 -43,6 -52,-33 -27,-104 -27,-102 15,-106 28,-2 37,-7 34,-18 -2,-8 -6,-84 -9,-168 l -4,-152 -41,-7 -40,-6 6,-64 c 4,-35 9,-68 13,-74 3,-6 23,-7 47,-4 l 42,7 18,-69 c 10,-37 29,-95 42,-128 l 25,-59 -23,-26 c -12,-14 -33,-40 -46,-59 l -24,-34 24,-45 c 13,-25 45,-77 72,-115 l 49,-69 50,48 c 34,33 52,45 55,36 12,-33 111,-138 189,-200 92,-74 245,-170 308,-193 l 38,-14 -5,-57 -5,-58 111,-35 c 141,-44 160,-46 165,-20 2,11 7,23 10,27 4,3 48,-3 97,-14 85,-19 122,-20 695,-18 642,1 672,-1 797,-48 82,-31 167,-96 221,-168 65,-87 87,-154 87,-264 -1,-71 -5,-95 -28,-143 -33,-72 -114,-153 -187,-188 -60,-29 -223,-71 -365,-94 -135,-22 -258,-45 -262,-49 -2,-1 3,-22 12,-45 l 14,-42 -135,-64 c -75,-36 -158,-80 -184,-99 l -48,-34 -28,29 c -15,16 -33,29 -40,29 -13,0 -264,-245 -264,-258 1,-5 68,-60 98,-78 2,-1 -18,-35 -45,-76 -69,-103 -106,-170 -146,-268 -34,-81 -77,-230 -77,-264 0,-15 52,-16 548,-16 301,0 556,3 567,6 11,3 32,22 46,43 35,50 136,116 213,140 34,10 120,29 191,41 158,26 377,77 385,90 6,10 136,70 151,70 5,0 13,-9 17,-19 6,-18 18,-13 118,54 62,40 115,78 118,84 4,6 -7,32 -25,57 l -32,47 29,21 c 156,113 279,238 342,348 15,27 29,48 32,48 3,0 23,-22 45,-50 22,-27 42,-49 45,-49 3,0 36,51 73,115 l 69,115 -56,74 -55,74 25,55 c 14,30 33,87 42,126 l 17,71 41,-6 41,-6 6,53 c 12,94 11,95 -33,103 l -40,7 v 66 c 0,63 -9,139 -25,224 -7,36 -6,37 29,43 20,4 38,11 41,15 2,4 -5,36 -17,70 l -21,62 -41,-5 -42,-6 -28,57 c -15,31 -48,85 -72,119 l -44,62 45,38 c 25,20 45,40 45,44 0,11 -120,153 -137,162 -14,9 -78,-28 -103,-58 -9,-11 -26,1 -78,52 -37,36 -118,101 -179,145 -62,44 -113,84 -113,89 0,4 4,11 10,14 5,3 14,14 20,25 8,16 -2,24 -83,65 -99,51 -245,115 -262,115 -5,0 -22,-23 -37,-50 -16,-28 -32,-50 -37,-50 -6,0 -46,11 -89,25 -62,20 -306,75 -330,75 -2,0 -2,15 1,33 l 5,34 -141,6 c -181,9 -365,9 -498,1 l -105,-7 4,-33 4,-34 h -43 c -24,0 -61,3 -81,6 -33,6 -38,10 -38,34 0,27 -2,27 -76,33 -47,4 -102,18 -148,36 -41,16 -105,39 -142,50 -122,36 -182,96 -224,222 -18,52 -21,81 -18,156 3,82 8,99 41,165 21,40 55,94 77,120 81,94 248,182 404,214 125,25 378,29 586,8 102,-10 248,-18 325,-18 146,0 188,8 375,68 71,23 76,23 100,7 34,-23 218,-108 360,-167 124,-52 454,-217 665,-333 71,-39 134,-71 138,-71 19,0 -10,22 -143,110 -138,91 -169,115 -110,85 16,-8 37,-15 48,-15 17,0 85,-39 138,-79 11,-9 0,4 -25,28 -25,24 -100,84 -166,132 -173,128 -315,241 -315,250 0,20 23,18 57,-7 l 38,-27 -32,32 c -37,35 -39,40 -19,66 14,20 3,29 429,-338 127,-110 260,-211 456,-346 83,-58 151,-106 151,-108 0,-10 -145,36 -226,72 -88,39 -86,29 6,-30 177,-114 330,-173 413,-160 74,11 143,51 176,102 69,103 21,225 -106,273 -57,21 -173,28 -173,10 0,-5 8,-10 18,-10 30,0 140,-58 156,-82 9,-13 19,-38 22,-56 8,-38 4,-39 -97,-16 -125,28 -185,77 -571,466 -192,193 -348,354 -348,359 0,11 0,11 110,37 47,11 213,52 370,92 405,101 800,191 811,185 5,-3 16,-32 25,-63 30,-101 3,-295 -51,-379 -20,-30 -12,-29 39,6 130,90 226,260 226,403 v 48 l 46,-7 47,-6 -5,94 c -7,123 -23,174 -71,221 -58,56 -115,78 -265,103 -140,24 -599,79 -752,91 -58,4 -99,13 -130,29 -65,33 -154,48 -345,60 -49,3 -111,8 -137,11 -27,3 -48,2 -48,-3 0,-11 90,-82 132,-105 l 32,-18 -70,-31 c -79,-36 -137,-45 -366,-55 l -157,-7 -86,39 c -46,21 -85,42 -85,46 0,19 90,108 124,123 21,9 37,18 34,20 -6,6 -171,-22 -251,-43 l -68,-17 26,-35 c 14,-18 25,-38 25,-43 0,-10 -130,-137 -141,-137 -8,0 -29,47 -29,65 0,7 19,29 42,49 l 41,36 -72,72 -72,73 -22,-25 c -47,-52 -49,-52 -110,-19 -61,33 -66,43 -48,107 11,38 3,44 -95,72 -47,14 -65,15 -72,7 z m 73,-298 c 28,-13 70,-44 95,-69 65,-64 92,-127 98,-225 6,-110 -20,-179 -97,-256 -70,-70 -133,-94 -241,-93 -59,1 -88,6 -133,27 -66,30 -142,104 -169,165 -82,185 11,408 194,468 65,21 191,13 253,-17 z m 1677,-41 c 48,-14 130,-86 148,-128 7,-16 14,-30 16,-30 3,0 34,19 70,42 75,47 67,46 293,23 404,-42 538,-76 604,-154 30,-36 35,-56 11,-47 -9,3 -46,9 -82,12 -55,5 -95,0 -227,-29 -164,-36 -193,-42 -256,-51 -34,-5 -35,-4 -47,40 -14,53 -57,84 -115,84 -90,0 -140,-69 -115,-160 7,-25 7,-25 -185,-72 -106,-26 -203,-50 -217,-52 -14,-2 -65,-14 -115,-25 -194,-45 -246,-54 -257,-43 -17,17 -1,30 45,37 85,13 96,25 56,61 -27,24 -94,22 -176,-4 -32,-11 -84,-22 -115,-26 -76,-8 -124,-32 -149,-74 -11,-19 -17,-37 -14,-40 3,-3 5,-1 5,5 0,6 14,-2 30,-17 27,-25 30,-34 30,-87 -1,-116 -66,-192 -173,-201 -63,-4 -112,14 -167,64 -64,58 -77,142 -36,230 28,61 59,87 123,103 26,7 55,16 63,20 22,11 87,138 101,197 l 12,51 156,22 c 86,12 163,22 171,23 8,2 70,-11 138,-27 87,-21 124,-34 127,-46 16,-51 101,-99 175,-99 197,0 253,242 77,332 -83,42 -199,13 -244,-62 -9,-17 -21,-30 -26,-30 -18,0 -102,23 -110,30 -16,14 127,111 193,131 39,12 139,10 182,-3 z m -2485,-44 c 5,-14 -38,-27 -50,-15 -5,5 -6,14 -2,21 8,14 47,9 52,-6 z m 1508,-58 c 33,-26 75,-80 75,-98 0,-5 -6,-8 -14,-8 -16,0 -46,-58 -46,-89 0,-26 -34,-61 -57,-61 -10,0 -35,3 -55,6 -34,6 -38,10 -38,37 v 30 l 21,-27 c 12,-15 30,-26 44,-26 28,0 65,43 65,75 0,46 -69,78 -102,48 -20,-18 -20,-18 -18,7 4,44 1,47 -50,54 -27,4 -50,11 -50,15 0,5 16,23 37,41 33,30 40,32 94,28 43,-3 66,-11 94,-32 z m 975,-45 c 36,-36 46,-73 30,-112 -23,-53 -92,-74 -150,-44 -34,18 -50,43 -50,80 0,92 107,140 170,76 z m -2930,10 c 0,-5 2,-16 6,-24 4,-11 -17,-21 -83,-42 -48,-15 -123,-43 -165,-62 -64,-29 -80,-33 -93,-23 -8,7 -15,18 -15,25 0,15 93,58 220,101 100,34 130,40 130,25 z m 600,-145 v -84 l -42,5 c -87,9 -88,10 -88,52 0,21 3,52 6,69 7,32 18,37 92,41 l 32,1 z m -1102,31 c 60,-30 144,-124 250,-282 83,-123 112,-174 112,-195 0,-10 -105,-80 -120,-80 -6,0 -10,5 -10,10 0,6 -34,63 -76,127 -102,156 -220,271 -369,358 -15,9 -9,16 46,53 71,48 89,49 167,9 z m 2262,-47 v -80 h -65 -65 v 80 80 h 65 65 z m -1710,-44 c 0,-19 -16,-31 -97,-70 -124,-60 -143,-64 -165,-32 l -17,24 62,33 c 65,35 197,80 209,72 5,-2 8,-15 8,-27 z m 3328,22 c 7,-7 12,-21 12,-33 0,-30 -19,-45 -56,-45 -31,0 -44,13 -44,45 0,36 62,59 88,33 z M 7533,7326 c 42,-42 53,-89 32,-138 -27,-67 -158,-106 -206,-62 -67,61 -64,157 7,213 20,15 41,21 80,21 47,0 57,-4 87,-34 z m 1260,-19 c 21,-30 37,-58 37,-64 0,-5 -18,-24 -40,-42 -46,-37 -48,-36 -102,32 l -32,40 49,43 c 28,24 50,44 51,44 0,0 17,-24 37,-53 z m 947,-82 c 0,-16 -103,-115 -121,-115 -9,0 -31,16 -48,36 l -32,35 47,52 c 26,29 51,63 57,75 11,23 12,23 54,-25 23,-26 42,-52 43,-58 z m -1521,71 c -12,-11 -161,-67 -166,-62 -3,3 5,10 18,15 13,5 47,18 74,29 45,19 85,28 74,18 z M 7193,7158 c -32,-31 -43,-37 -61,-31 -21,8 -18,12 36,68 l 57,60 3,-29 c 3,-23 -5,-37 -35,-68 z m 1835,-39 c 23,-7 42,-15 42,-17 0,-27 -35,-122 -45,-122 -13,0 -110,42 -133,58 -11,7 -7,21 18,65 30,54 33,56 53,43 12,-8 41,-20 65,-27 z m -439,7 c 7,-17 20,-25 49,-29 21,-4 46,-15 56,-25 16,-18 13,-19 -101,-25 -126,-6 -212,-22 -333,-61 -41,-13 -78,-22 -83,-19 -4,2 -16,22 -27,43 l -20,39 21,12 c 40,21 126,47 210,63 114,21 127,23 177,25 36,1 44,-3 51,-23 z m 820,-69 c 6,-35 11,-66 11,-69 0,-3 -26,-9 -57,-13 -32,-3 -67,-9 -79,-11 -19,-5 -22,1 -31,58 -6,35 -9,65 -7,67 3,3 114,27 140,30 7,0 17,-26 23,-62 z m -1730,26 c -31,-42 -145,-153 -156,-153 -14,0 146,168 161,169 5,1 3,-7 -5,-16 z m -566,-14 c 143,-48 337,-169 432,-270 25,-26 31,-36 15,-26 -36,25 -48,21 -56,-18 -3,-19 -11,-38 -16,-41 -5,-3 -1,-15 9,-26 10,-11 -17,5 -60,35 -91,65 -259,150 -404,203 l -102,37 42,49 c 23,27 46,56 52,64 13,18 14,18 88,-7 z m 757,-283 c 11,-22 9,-28 -18,-63 -41,-51 -78,-134 -93,-210 l -12,-63 h -42 c -23,0 -44,3 -47,6 -9,8 19,118 31,122 5,2 8,9 5,17 -6,14 9,49 32,75 7,8 29,34 49,57 20,23 40,42 43,42 4,-1 14,-1 22,0 12,1 13,3 1,10 -7,5 -10,14 -7,20 11,17 21,13 36,-13 z m -617,-55 c 26,-13 67,-43 91,-66 31,-30 48,-40 59,-34 9,6 19,4 26,-4 18,-22 41,-97 41,-133 0,-28 -4,-34 -21,-34 -11,0 -28,4 -37,9 -14,7 -17,4 -19,-20 -7,-94 -98,-202 -197,-233 -130,-41 -264,39 -312,187 -9,29 -21,57 -26,62 -6,6 -7,4 -3,-7 5,-13 2,-18 -10,-18 -11,0 -15,5 -11,15 3,8 1,15 -4,15 -11,0 0,39 33,112 32,73 99,139 163,160 68,23 165,18 227,-11 z m 512,-483 c 8,-56 48,-147 89,-200 l 25,-33 -37,-16 c -36,-15 -37,-15 -38,5 -1,12 -15,44 -31,72 -17,27 -36,67 -43,88 -9,28 -15,35 -23,27 -9,-9 -8,-14 2,-20 8,-5 14,-22 15,-39 0,-17 4,-28 8,-26 10,7 18,-12 24,-53 l 4,-38 -18,30 c -10,17 -28,55 -39,85 -46,119 -50,151 -20,149 9,0 9,-2 0,-6 -16,-6 -17,-24 -2,-20 6,1 14,-4 17,-12 3,-8 0,-11 -7,-7 -7,5 -9,1 -5,-8 12,-32 26,-16 19,23 -5,33 -3,40 12,44 38,10 41,6 48,-45 z m -953,-178 c 6,-30 20,-74 30,-98 20,-48 22,-62 10,-62 -15,0 -62,171 -67,240 -5,71 -6,75 27,-80 z m 734,98 c 3,-13 16,-36 26,-51 11,-16 19,-29 17,-30 -2,-2 -37,-13 -78,-26 -184,-58 -357,-174 -512,-347 -29,-33 -53,-58 -52,-56 1,3 -4,16 -11,31 -8,15 -19,53 -25,85 -12,67 -12,68 87,170 90,93 219,173 352,219 61,22 76,24 137,26 45,1 53,-2 59,-21 z m -568,-119 c -3,-9 -12,0 -22,21 l -18,35 22,-21 c 12,-12 20,-28 18,-35 z m 621,-84 c 17,-24 45,-54 62,-66 30,-21 30,-21 11,-43 -11,-11 -24,-30 -30,-40 -9,-18 -17,-12 -95,62 -60,58 -80,82 -69,87 8,3 22,0 31,-7 14,-11 14,-11 3,4 -11,14 -10,19 10,32 33,24 41,20 77,-29 z m 376,-24 c 6,-29 8,-30 65,-30 57,1 59,2 65,30 7,33 10,33 54,18 31,-11 41,-32 20,-44 -16,-11 -8,-21 51,-60 54,-37 55,-37 69,-16 18,28 39,26 67,-5 31,-33 30,-40 -6,-59 -31,-16 -37,-29 -20,-40 5,-3 16,-27 23,-53 13,-44 16,-47 50,-50 31,-3 37,-7 37,-27 0,-13 3,-30 6,-39 4,-11 -4,-15 -38,-18 -43,-3 -43,-3 -49,-49 -4,-26 -14,-58 -24,-72 -16,-25 -15,-26 14,-43 17,-10 31,-22 31,-27 0,-12 -40,-77 -47,-77 -3,0 -17,9 -33,20 -27,19 -28,19 -44,1 -9,-10 -34,-26 -56,-36 -42,-19 -46,-28 -30,-69 8,-23 7,-26 -13,-26 -12,0 -32,-3 -44,-6 -19,-5 -23,-1 -28,30 l -7,36 h -59 c -44,0 -59,-4 -59,-14 0,-8 -8,-23 -17,-35 -16,-20 -22,-21 -51,-10 -34,12 -36,21 -16,72 4,11 -4,21 -24,31 -17,9 -40,28 -51,42 l -21,27 -29,-27 -29,-28 -28,41 c -15,23 -25,43 -23,44 2,2 16,11 32,20 24,16 26,20 15,40 -7,12 -15,45 -18,72 -5,50 -5,50 -43,53 l -39,3 7,37 c 9,46 8,46 42,35 28,-10 28,-9 49,56 21,64 21,66 3,79 -24,17 -24,43 0,73 l 19,24 24,-23 25,-22 56,37 c 46,30 54,40 46,54 -15,29 -11,38 24,48 17,5 35,10 39,10 3,1 9,-12 13,-28 z m 1225,-191 c -11,-193 -37,-501 -44,-507 -2,-3 -48,1 -103,7 -54,7 -128,9 -165,5 l -68,-6 v 244 c 0,134 -3,285 -6,335 l -7,92 194,2 c 107,2 197,1 201,-2 4,-3 3,-79 -2,-170 z m -1833,65 c 67,-27 106,-110 84,-177 -14,-42 -62,-90 -93,-94 -13,-1 -23,-3 -23,-4 0,-1 -19,-4 -43,-6 -30,-2 -41,0 -36,8 5,8 2,9 -9,5 -10,-3 -17,-2 -17,3 0,6 -6,9 -12,8 -7,-2 -12,3 -10,10 1,8 -2,11 -8,7 -15,-9 -50,55 -50,93 0,40 19,79 57,113 57,53 94,60 160,34 z m 1351,-32 -3,-28 -122,-3 c -73,-1 -123,1 -123,7 0,5 -3,16 -6,24 -7,19 20,23 159,25 l 98,2 z m 752,1 c 84,-16 119,-26 202,-56 56,-20 57,-20 42,-43 l -15,-23 -57,19 c -64,22 -285,69 -326,69 -28,0 -42,20 -32,46 7,18 47,15 186,-12 z m 600,-20 c 44,-20 80,-40 80,-44 0,-4 -19,-15 -42,-26 -59,-26 -192,-161 -261,-265 -31,-48 -78,-131 -103,-185 -25,-55 -51,-104 -56,-111 -8,-9 -25,-2 -71,29 -34,23 -64,43 -66,44 -6,5 108,257 129,284 11,14 20,29 20,34 0,5 20,37 45,71 59,83 191,205 222,205 13,0 60,-16 103,-36 z M 7566,5653 c -10,-55 -75,-142 -132,-178 -38,-23 -63,-30 -116,-33 -37,-3 -83,-1 -101,2 -43,8 -112,67 -137,117 -22,41 -26,79 -10,79 6,0 10,-9 10,-20 0,-47 62,-121 127,-154 99,-50 257,10 302,113 12,28 24,64 27,81 4,17 13,30 21,30 12,0 14,-8 9,-37 z m 1819,-64 c 28,-5 87,-21 133,-35 l 83,-25 -20,-28 -20,-28 -111,28 c -61,16 -124,30 -140,31 -27,2 -30,5 -30,39 0,40 -6,39 105,18 z m -665,-24 v -35 h -54 c -29,0 -74,-3 -100,-6 l -46,-7 v 36 c 0,41 5,42 133,45 l 67,2 z m 1420,5 c 14,-11 30,-20 36,-20 18,0 34,-24 25,-38 -6,-9 -20,-6 -57,14 -27,15 -50,28 -52,29 -5,4 10,35 17,35 3,0 17,-9 31,-20 z m 207,-139 c 32,-27 77,-69 101,-93 36,-38 41,-47 29,-57 -12,-10 -28,0 -88,53 -41,35 -87,74 -102,87 -20,17 -26,29 -22,42 10,25 18,22 82,-32 z m -180,-7 c 100,-76 79,-214 -41,-265 -22,-10 -33,-10 -47,-1 -10,7 -27,12 -36,11 -16,0 -15,-2 2,-9 15,-7 16,-9 4,-9 -9,-1 -24,9 -33,22 -9,12 -14,16 -10,9 5,-11 2,-12 -15,-3 -30,17 -71,81 -71,114 0,33 24,94 48,121 46,52 138,57 199,10 z M 8690,5310 c -14,-4 -72,-8 -130,-7 -104,1 -105,1 -30,7 114,10 190,10 160,0 z m 640,-5 c 47,-9 132,-36 127,-41 -5,-5 -186,41 -195,51 -4,4 2,5 13,2 11,-3 36,-8 55,-12 z m -1841,-95 c 6,0 11,-4 11,-10 0,-5 -3,-10 -7,-10 -14,0 -128,60 -153,81 -14,11 12,2 57,-21 44,-22 86,-40 92,-40 z m 3122,-41 18,-26 -52,18 c -51,18 -58,29 -35,57 12,14 35,-2 69,-49 z m -254,-23 c -25,-19 -12,-43 40,-77 48,-30 60,-29 111,8 41,31 58,25 116,-37 39,-42 50,-49 66,-40 29,16 38,12 55,-21 12,-22 13,-34 6,-43 -8,-10 -4,-26 15,-60 14,-25 32,-69 39,-96 l 13,-49 -32,-7 c -17,-3 -36,-10 -42,-15 -8,-7 -13,12 -16,65 -8,122 -71,202 -189,241 -62,21 -113,14 -197,-26 -113,-55 -169,-166 -143,-283 11,-51 54,-124 90,-154 31,-25 116,-62 145,-62 16,0 27,-3 23,-6 -14,-14 -98,9 -154,43 -44,26 -67,47 -83,77 -39,76 -44,79 -96,71 -55,-8 -64,0 -64,58 0,33 -4,39 -30,48 -36,13 -36,14 -9,59 55,90 131,180 223,262 91,80 101,87 115,73 15,-15 14,-17 -2,-29 z m -397,-82 c 46,-30 54,-52 12,-30 -42,22 -132,106 -132,123 0,10 15,0 40,-25 21,-23 57,-53 80,-68 z m -637,43 c 33,-9 61,-18 63,-20 4,-3 -20,-75 -30,-94 -1,0 -39,5 -86,13 -60,10 -182,14 -417,14 h -333 v 33 c 0,17 -3,43 -7,56 l -6,23 379,-5 c 295,-4 392,-8 437,-20 z m -966,-54 c -3,-10 -5,-4 -5,12 0,17 2,24 5,18 2,-7 2,-21 0,-30 z m -259,-22 267,-6 3,-22 c 3,-22 1,-23 -85,-23 -140,1 -385,18 -423,30 -19,7 -41,14 -48,16 -7,2 -10,8 -7,14 4,6 11,7 17,4 5,-3 130,-9 276,-13 z m 2452,-106 c 61,-31 100,-105 99,-182 0,-26 -3,-43 -5,-36 -6,15 -34,5 -34,-11 0,-22 -90,-79 -130,-82 -71,-5 -122,31 -184,126 -26,42 -22,72 19,126 56,73 157,99 235,59 z m -844,-30 c -4,-10 1,-15 15,-15 14,0 19,-5 16,-14 -4,-9 2,-18 15,-22 15,-5 17,-8 7,-14 -10,-7 -10,-12 -1,-23 6,-7 29,-45 50,-84 l 39,-70 -28,-17 c -15,-9 -30,-16 -33,-16 -3,0 -18,23 -32,52 -15,29 -43,75 -64,103 l -38,52 26,41 c 28,43 38,53 28,27 z m 1043,-281 c -6,-8 -17,-14 -23,-14 -7,0 -31,-18 -55,-40 -53,-49 -84,-66 -136,-74 -40,-6 -40,-6 7,9 54,18 149,100 168,145 15,37 25,34 11,-4 -6,-15 -7,-26 -1,-26 8,0 27,54 32,90 1,8 3,-4 5,-28 3,-25 -1,-50 -8,-58 z m 86,-136 c -2,-13 -6,-48 -10,-78 -7,-58 -66,-213 -73,-192 -2,7 7,41 21,75 14,34 31,97 38,140 7,42 16,77 20,77 4,0 6,-10 4,-22 z m -970,-5 c -3,-10 -13,-55 -21,-101 -20,-117 -49,-170 -101,-186 -20,-6 -19,-3 13,73 22,50 37,103 41,144 5,53 10,67 27,75 33,17 49,14 41,-5 z m 387,-44 c 96,-32 229,-103 314,-168 82,-62 215,-192 177,-172 -12,6 -28,8 -36,5 -19,-7 -37,-48 -37,-85 v -31 l -62,57 c -123,111 -333,231 -490,280 l -84,26 25,54 26,54 h 53 c 29,1 80,-8 114,-20 z m 416,-64 c -10,-23 -28,-34 -28,-18 0,7 31,43 36,43 2,0 -2,-11 -8,-25 z m -559,-132 41,-27 -33,-27 c -37,-32 -47,-35 -47,-14 0,8 5,15 11,15 5,0 7,5 4,10 -3,6 2,10 12,11 12,0 14,2 4,6 -7,3 -40,-21 -77,-58 -61,-61 -64,-62 -79,-44 -8,11 -15,24 -15,29 0,16 104,124 122,125 9,0 35,-11 57,-26 z m -188,-255 c 60,-121 139,-307 139,-331 0,-5 6,-23 14,-40 28,-67 36,-88 36,-102 0,-20 -308,-133 -328,-121 -5,3 -12,19 -16,36 -16,82 -105,309 -202,519 -19,40 -34,75 -32,76 2,1 28,10 58,20 58,19 208,90 225,106 14,14 26,-6 106,-163 z m 477,73 c 111,-57 97,-216 -24,-267 -48,-20 -75,-17 -121,12 -74,49 -99,124 -63,193 39,77 128,103 208,62 z M 9263,3900 c 9,-52 19,-106 22,-120 3,-14 17,-88 31,-165 13,-77 31,-168 39,-203 24,-101 22,-109 -27,-120 -24,-6 -73,-19 -109,-30 l -66,-20 -20,72 c -34,119 -124,420 -134,441 -4,11 -16,45 -25,75 -9,30 -20,68 -25,83 -10,33 -18,29 121,56 58,12 119,25 135,30 17,4 33,6 36,2 3,-3 13,-49 22,-101 z m 137,60 c 0,-5 -2,-10 -4,-10 -3,0 -8,5 -11,10 -3,6 -1,10 4,10 6,0 11,-4 11,-10 z m 686,-118 c -2,-2 -11,11 -20,28 -12,26 -13,36 -4,54 11,19 13,16 20,-29 4,-27 5,-51 4,-53 z m 494,4 c -26,-54 -90,-121 -142,-147 -53,-27 -136,-35 -193,-19 -25,7 -45,16 -45,21 0,4 19,2 41,-6 59,-21 116,-18 174,9 66,30 138,110 155,171 10,37 15,43 22,31 7,-12 3,-30 -12,-60 z m -1084,16 11,-29 -59,-12 c -32,-6 -65,-14 -73,-18 -11,-4 -15,3 -15,24 0,28 4,31 53,45 72,21 71,21 83,-10 z m -604,-96 c 5,-22 -4,-29 -96,-72 -56,-26 -125,-62 -154,-81 -29,-18 -56,-33 -60,-33 -4,0 -13,9 -20,21 -11,18 -11,23 5,35 27,20 294,154 308,154 7,0 15,-11 17,-24 z m 693,-98 c 17,-61 19,-58 -22,-58 -21,0 -64,-6 -95,-14 l -56,-13 -7,35 c -3,19 -4,37 -1,40 6,5 124,29 158,31 9,1 19,-9 23,-21 z M 8494,3558 c 52,-65 136,-184 186,-265 l 92,-146 -48,-43 c -27,-24 -54,-43 -60,-44 -6,0 -63,69 -126,153 -64,83 -155,191 -203,238 l -86,86 67,72 c 38,39 72,70 76,69 4,-2 49,-56 102,-120 z m 1676,97 c -7,-9 -15,-13 -19,-10 -3,3 1,10 9,15 21,14 24,12 10,-5 z M 8959,3543 c 1,-13 -5,-23 -11,-23 -7,0 -64,-25 -127,-55 l -115,-56 -20,21 -21,21 25,21 c 29,23 121,71 200,104 60,24 68,21 69,-33 z m 1417,16 c -73,-63 -116,-89 -116,-69 0,6 4,10 8,10 4,0 37,22 72,49 72,54 92,60 36,10 z m -751,-148 c -6,-4 -39,-14 -74,-20 -34,-7 -70,-15 -80,-18 -12,-4 -13,-3 -5,6 5,6 41,17 80,25 89,18 90,18 79,7 z M 8370,3258 c 0,-4 -15,-29 -34,-55 -53,-76 -117,-200 -142,-277 l -22,-71 -46,-3 -46,-3 6,33 c 19,100 106,282 193,405 l 34,47 28,-34 c 16,-19 29,-38 29,-42 z m 635,63 c -17,-15 -168,-91 -172,-87 -5,4 49,37 122,75 42,21 66,27 50,12 z m 1043,-72 c 12,-18 9,-22 -40,-43 -100,-44 -115,-43 -102,8 6,24 36,42 61,38 6,-2 14,1 16,5 11,17 53,12 65,-8 z m -257,-111 c -6,-6 -101,-25 -326,-65 -49,-8 -121,-23 -160,-33 -38,-10 -73,-15 -76,-12 -15,16 -19,50 -6,55 7,3 105,21 217,41 113,20 237,42 275,49 67,12 70,12 76,-8 3,-11 3,-23 0,-27 z m -717,-75 c 20,-59 20,-79 0,-33 -15,34 -16,34 -25,12 -5,-12 -19,-26 -31,-31 -32,-12 -126,-98 -133,-121 -5,-15 -12,-18 -34,-14 -18,4 -32,0 -40,-10 -15,-18 -41,-21 -41,-5 0,20 59,97 107,138 58,52 164,122 174,116 4,-3 14,-26 23,-52 z m -629,-66 c -29,-46 -57,-95 -60,-110 -4,-15 -12,-27 -17,-27 -19,0 3,53 50,123 60,90 65,97 74,97 4,0 -17,-37 -47,-83 z"
       id="path14" />
    <path
       d="m 9115,7841 c -51,-23 -119,-96 -135,-146 -27,-83 4,-197 72,-262 170,-163 449,-30 425,203 -10,97 -80,187 -166,212 -57,18 -150,14 -196,-7 z m 185,-71 c 40,-20 75,-61 82,-94 5,-31 -16,-28 -34,4 -54,95 -199,92 -255,-6 -13,-21 -23,-34 -23,-29 0,6 -5,3 -11,-5 -8,-11 -9,-7 -5,18 8,48 39,87 88,111 54,26 108,27 158,1 z m -30,-116 c 20,-23 16,-75 -5,-90 -41,-30 -105,-1 -105,48 0,49 79,80 110,42 z"
       id="path15" />
    <path
       d="m 10064,7209 c -22,-11 -44,-48 -44,-74 0,-25 38,-55 70,-55 17,0 39,9 50,20 23,23 27,82 7,98 -20,17 -60,22 -83,11 z"
       id="path16" />
    <path
       d="m 10186,7161 c -9,-65 -49,-111 -99,-111 -41,0 -82,30 -91,66 -6,23 -11,26 -38,20 -41,-8 -42,-9 -34,-50 9,-46 59,-93 121,-112 50,-16 52,-16 100,9 28,14 58,33 67,44 28,30 46,85 42,127 -4,45 -2,41 -35,49 -25,6 -27,4 -33,-42 z"
       id="path17" />
    <path
       d="m 10942,7680 c -18,-30 -15,-49 13,-62 21,-9 28,-8 45,7 25,22 25,37 2,58 -25,22 -44,21 -60,-3 z"
       id="path18" />
    <path
       d="m 7770,7348 c 0,-18 18,-34 28,-24 3,4 -2,14 -11,23 -16,16 -17,16 -17,1 z"
       id="path19" />
    <path
       d="m 7720,7326 c 0,-4 126,-194 136,-205 2,-2 21,4 43,14 l 39,17 -40,66 c -44,73 -79,107 -90,89 -5,-8 -17,-6 -43,6 -37,18 -45,20 -45,13 z"
       id="path20" />
    <path
       d="m 7385,7298 c -15,-14 -28,-38 -32,-60 -5,-32 -1,-41 25,-68 17,-16 40,-30 51,-30 52,0 101,48 101,100 0,12 -13,35 -29,51 -36,36 -79,38 -116,7 z m 80,-48 c 4,-6 1,-18 -6,-26 -11,-13 -14,-13 -27,0 -8,8 -11,19 -8,25 9,14 33,14 41,1 z"
       id="path21" />
    <path
       d="m 7082,6700 c -73,-18 -148,-89 -175,-166 -32,-92 15,-220 100,-274 87,-56 179,-49 268,18 122,92 133,259 24,359 -57,52 -151,79 -217,63 z m 114,-89 c 77,-35 119,-120 93,-188 -8,-21 -19,-38 -25,-38 -14,0 -74,-52 -68,-58 9,-9 -35,-19 -47,-11 -8,4 -9,3 -5,-4 8,-13 -4,-15 -28,-6 -9,3 -13,11 -9,17 3,6 1,7 -6,3 -17,-11 -75,19 -94,47 -8,13 -21,42 -27,64 -22,73 23,148 106,178 51,18 61,18 110,-4 z m 64,-240 c 0,-5 -12,-17 -27,-26 l -28,-18 24,27 c 26,28 31,31 31,17 z"
       id="path22" />
    <path
       d="m 7082,6530 c -46,-43 -38,-112 16,-143 89,-52 166,60 93,134 -35,35 -77,38 -109,9 z"
       id="path23" />
    <path
       d="m 7978,5826 c -134,-48 -198,-133 -198,-265 1,-144 119,-261 265,-261 147,0 257,112 257,262 0,114 -87,231 -195,263 -61,18 -81,18 -129,1 z m 120,-156 c 89,-40 97,-171 12,-215 -51,-26 -105,-20 -146,18 -30,28 -37,42 -41,83 -5,44 -2,54 23,83 46,54 83,62 152,31 z"
       id="path24" />
    <path
       d="m 7996,5609 c -51,-40 -24,-119 40,-119 36,0 54,11 69,41 20,38 19,46 -10,74 -30,30 -64,32 -99,4 z m 78,-35 c 8,-21 -11,-44 -36,-44 -21,0 -33,22 -24,45 7,20 52,19 60,-1 z"
       id="path25" />
    <path
       d="m 8963,5573 c 15,-2 39,-2 55,0 15,2 2,4 -28,4 -30,0 -43,-2 -27,-4 z"
       id="path26" />
    <path
       d="m 9058,5573 c 6,-2 12,-16 12,-30 0,-20 -4,-24 -20,-20 -11,3 -20,2 -20,-3 0,-4 -30,-11 -67,-14 -110,-11 -103,-4 -103,-116 v -98 l 133,-4 c 72,-2 134,-2 137,0 3,2 7,69 8,148 l 4,144 h -27 c -15,0 -24,-4 -20,-10 3,-5 1,-10 -4,-10 -6,0 -11,5 -11,10 0,6 -8,10 -17,9 -11,0 -13,-3 -5,-6 z"
       id="path27" />
    <path
       d="m 8860,5535 c 0,-19 2,-35 4,-35 2,0 6,16 8,35 2,19 0,35 -4,35 -4,0 -8,-16 -8,-35 z"
       id="path28" />
    <path
       d="m 7293,5772 c -48,-5 -83,-43 -83,-90 0,-60 30,-92 86,-92 37,0 51,6 75,29 65,66 16,163 -78,153 z m 37,-77 c 10,-12 10,-18 0,-30 -7,-8 -18,-15 -25,-15 -7,0 -18,7 -25,15 -10,12 -10,18 0,30 7,8 18,15 25,15 7,0 18,-7 25,-15 z"
       id="path29" />
    <path
       d="m 9686,5411 c -41,-64 -96,-166 -96,-177 0,-5 19,-22 41,-38 46,-32 48,-31 75,39 7,17 21,54 33,82 11,29 18,52 13,51 -12,-2 -62,14 -62,21 0,3 4,12 9,20 7,11 13,11 32,1 13,-7 27,-17 30,-22 3,-5 9,-3 12,6 4,11 -1,18 -18,22 -14,3 -29,13 -34,22 -7,12 -14,7 -35,-27 z"
       id="path30" />
    <path
       d="m 10027,5389 c -24,-14 -47,-62 -47,-97 0,-45 48,-92 95,-92 50,0 105,53 105,100 0,46 -56,100 -101,100 -19,0 -42,-5 -52,-11 z m 73,-83 c 0,-28 -24,-41 -40,-21 -16,20 -5,45 20,45 14,0 20,-7 20,-24 z"
       id="path31" />
    <path
       d="m 10413,4850 c -12,-5 -29,-22 -37,-39 -41,-79 8,-161 95,-161 40,0 99,56 99,94 0,84 -79,137 -157,106 z"
       id="path32" />
    <path
       d="m 9905,3767 c -22,-12 -42,-24 -45,-27 -3,-3 -9,-5 -15,-5 -5,0 -36,-9 -68,-20 -68,-22 -67,-11 -11,-187 32,-99 36,-106 57,-100 102,30 247,87 247,97 0,34 -99,247 -111,239 -5,-3 -6,2 -3,10 8,21 -3,20 -51,-7 z"
       id="path33" />
    <path
       d="m 10280,4007 c -31,-15 -50,-52 -50,-95 0,-48 46,-92 95,-92 51,0 95,44 95,95 0,49 -15,74 -55,91 -42,17 -53,17 -85,1 z m 70,-72 c 10,-12 10,-18 0,-30 -7,-8 -18,-15 -25,-15 -7,0 -18,7 -25,15 -10,12 -10,18 0,30 7,8 18,15 25,15 7,0 18,-7 25,-15 z"
       id="path34" />
    <path
       d="m 9259,3614 c -1,-5 -1,-13 0,-17 1,-4 -9,-3 -21,4 -18,10 -24,8 -34,-6 -7,-10 -15,-23 -17,-29 -3,-7 -11,-5 -23,6 -12,10 -28,15 -41,12 -28,-8 -25,-39 17,-184 26,-88 36,-110 49,-106 9,3 43,12 76,22 33,9 63,19 67,23 4,3 -8,66 -26,139 -30,121 -44,161 -47,136 z m -122,-61 c -9,-9 -19,-14 -23,-11 -10,10 6,28 24,28 15,0 15,-1 -1,-17 z"
       id="path35" />
    <path
       d="m 8538,3314 c -15,-15 -13,-22 28,-83 25,-36 54,-81 65,-98 l 21,-33 30,18 c 54,31 54,36 -2,116 l -52,76 -30,-26 c -29,-24 -31,-24 -49,-8 -18,16 -18,18 -3,36 21,22 14,24 -8,2 z"
       id="path36" />
    <path
       d="m 8377,7585 c -21,-6 -34,-14 -30,-19 4,-4 -3,-6 -17,-4 -17,2 -26,-2 -28,-14 -5,-27 43,-35 71,-12 18,16 20,16 8,2 -9,-13 -10,-18 -2,-18 6,0 16,10 21,23 6,15 9,17 9,6 1,-23 -23,-41 -59,-44 -17,-1 -33,-4 -36,-7 -5,-5 32,-167 39,-175 2,-2 32,0 66,4 61,6 63,7 57,32 -3,14 -15,68 -26,119 -25,121 -26,121 -73,107 z"
       id="path37" />
    <path
       d="m 11710,7189 c -41,-11 -145,-35 -230,-54 -212,-48 -424,-98 -430,-102 -2,-2 79,-87 180,-189 l 185,-184 130,1 c 72,0 152,-4 178,-10 112,-26 214,-103 266,-201 80,-150 51,-328 -75,-455 -83,-84 -167,-114 -315,-115 -144,0 -230,34 -484,188 -323,197 -484,287 -810,450 -231,116 -409,198 -511,237 l -61,24 -99,-21 c -107,-23 -135,-23 -884,-16 -289,2 -332,1 -389,-15 -88,-25 -148,-57 -208,-112 -169,-151 -136,-387 63,-450 54,-17 112,-19 694,-26 354,-4 659,-11 690,-17 387,-72 728,-223 1006,-446 107,-86 251,-239 315,-335 113,-168 215,-423 241,-598 7,-50 12,-169 12,-278 -1,-206 -9,-256 -75,-461 -108,-337 -357,-655 -705,-897 -45,-31 -87,-57 -93,-57 -6,0 -11,-4 -11,-10 0,-7 535,-10 1585,-10 h 1585 v 30 30 h -380 -380 v 141 141 l -52,-44 c -29,-23 -96,-87 -150,-140 l -97,-98 h -65 -66 l -2,264 -3,265 -131,-197 c -72,-108 -143,-218 -158,-244 -16,-27 -29,-48 -31,-48 -2,0 -1,56 2,125 4,75 2,125 -3,125 -5,0 -47,-29 -92,-65 -45,-36 -88,-65 -94,-65 -7,0 -39,25 -71,56 l -59,56 20,21 c 169,188 401,531 436,645 7,21 5,22 -53,22 h -61 v 135 135 h 129 128 l 31,98 c 17,53 37,124 46,157 23,92 76,353 76,375 0,19 -8,20 -210,20 h -210 v -216 c 0,-172 -3,-214 -12,-206 -7,6 -44,9 -83,7 -38,-1 -103,-3 -142,-4 -68,-1 -73,-2 -74,-23 -1,-13 -5,4 -9,37 -4,33 -8,248 -9,478 l -1,417 h 165 165 v -115 -115 h 231 231 l -5,308 c -6,381 -23,531 -93,832 -28,118 -139,459 -158,485 -11,16 -17,15 -84,-8 -39,-15 -97,-33 -129,-41 -32,-9 -89,-25 -127,-35 l -68,-20 6,22 c 15,51 45,196 50,242 21,197 21,195 -5,194 -13,0 -58,-9 -99,-20 z m -150,-2652 v -23 l -92,13 c -51,7 -99,11 -105,8 -7,-2 -13,2 -13,10 0,12 19,15 105,15 103,0 105,0 105,-23 z m -30,-892 v -76 l -122,3 -123,3 -3,73 -3,72 h 126 125 z"
       id="path38" />
    <path
       d="m 5165,2380 c -139,-29 -233,-131 -243,-260 -5,-79 8,-128 49,-175 52,-59 128,-94 244,-111 107,-17 141,-26 162,-46 29,-27 29,-39 -2,-68 -21,-20 -35,-23 -97,-23 -88,0 -158,21 -224,69 l -49,34 -25,-29 c -14,-16 -44,-52 -67,-79 l -42,-49 22,-20 c 49,-44 115,-83 177,-105 55,-19 85,-22 200,-22 118,0 142,3 194,23 64,26 130,86 153,139 24,58 28,153 8,206 -35,91 -103,127 -327,176 -114,25 -144,44 -134,83 18,72 158,76 268,8 l 50,-31 21,27 c 12,15 41,49 65,76 23,26 42,52 42,57 0,14 -76,67 -128,90 -82,36 -222,49 -317,30 z"
       id="path39" />
    <path
       d="m 9515,2375 c -139,-41 -214,-127 -223,-256 -8,-121 54,-210 180,-255 24,-9 91,-24 150,-34 119,-21 144,-31 153,-61 15,-47 -63,-86 -149,-75 -81,11 -147,36 -195,74 l -44,36 -40,-45 c -80,-90 -91,-107 -76,-126 28,-33 135,-94 204,-115 95,-30 274,-32 354,-4 177,61 248,282 135,415 -43,49 -110,76 -254,101 -58,10 -114,22 -125,26 -59,21 -72,69 -27,104 24,19 36,22 100,18 59,-4 87,-12 141,-40 l 67,-35 63,80 63,80 -23,18 c -48,37 -156,87 -211,99 -69,14 -189,11 -243,-5 z"
       id="path40" />
    <path
       d="m 10410,2374 c -120,-32 -211,-113 -274,-244 -41,-84 -41,-86 -40,-195 1,-123 13,-160 83,-263 151,-224 492,-247 721,-49 l 33,28 -79,83 c -44,46 -84,84 -90,85 -5,0 -21,-13 -33,-30 -13,-17 -48,-42 -78,-56 -125,-58 -263,1 -312,131 -62,167 98,346 270,302 47,-13 119,-58 119,-76 0,-5 8,-11 19,-15 14,-4 36,12 87,65 38,40 70,75 72,80 6,17 -80,89 -141,119 -107,52 -244,65 -357,35 z"
       id="path41" />
    <path
       d="m 5730,1940 v -440 h 115 115 l 2,237 3,237 139,-185 c 77,-101 159,-208 183,-236 l 45,-53 h 99 99 v 440 441 l -116,-3 -115,-3 1,-230 c 1,-197 -1,-228 -13,-215 -8,8 -81,101 -162,205 -211,270 -180,245 -297,245 h -98 z"
       id="path42" />
    <path
       d="m 6861,2232 c -44,-120 -163,-420 -271,-685 l -20,-48 126,3 126,3 27,70 27,70 h 164 164 l 26,-70 25,-70 128,-3 127,-3 -19,48 c -11,26 -71,175 -134,331 -64,156 -133,332 -154,393 l -38,109 h -125 -125 z m 222,-262 c 20,-52 39,-103 43,-112 6,-16 -2,-18 -85,-18 -50,0 -91,1 -91,3 0,2 18,51 40,110 22,58 40,111 40,118 0,26 18,-8 53,-101 z"
       id="path43" />
    <path
       d="m 7550,1940 v -440 h 115 115 v 130 c 0,119 2,134 22,160 12,17 25,30 28,30 4,0 67,-72 140,-160 l 134,-160 h 153 c 84,0 153,3 153,6 0,4 -44,55 -98,113 -54,58 -147,161 -207,229 l -108,123 79,82 c 43,45 133,137 199,205 l 120,122 h -161 -162 l -64,-72 c -35,-40 -101,-117 -146,-171 l -82,-98 v 170 171 h -115 -115 z"
       id="path44" />
    <path
       d="m 8460,1940 v -440 h 350 350 v 105 105 h -235 -235 v 65 65 h 204 c 129,0 207,4 211,10 4,6 3,51 -1,100 l -7,90 h -198 -199 l -2,33 c 0,17 -1,43 -2,57 l -1,25 230,5 230,5 3,108 3,107 h -351 -350 z"
       id="path45" />
    <path
       d="m 11244,2283 c -128,-334 -294,-746 -305,-758 -21,-21 -3,-25 114,-25 h 124 l 16,38 c 9,20 23,54 31,75 l 15,37 h 159 158 l 30,-72 30,-73 122,-3 c 76,-2 122,1 122,7 0,6 -62,167 -139,358 -76,191 -150,385 -165,431 l -28,82 h -123 -123 z m 206,-326 c 22,-59 40,-109 40,-112 0,-3 -38,-5 -85,-5 -47,0 -85,4 -85,9 0,8 47,141 71,200 5,13 12,22 14,19 3,-2 23,-52 45,-111 z"
       id="path46" />
    <path
       d="m 11900,1941 v -441 h 114 113 l 7,61 c 3,34 6,90 6,124 v 63 l 128,4 c 154,5 209,25 275,98 52,58 77,128 77,216 0,132 -70,239 -186,284 -54,22 -78,24 -296,28 l -238,4 z m 412,219 c 45,-13 68,-43 68,-87 0,-45 -18,-79 -48,-93 -14,-6 -63,-14 -109,-17 l -83,-6 v 107 106 h 68 c 37,0 84,-5 104,-10 z"
       id="path47" />
    <path
       d="m 12700,1940 v -440 h 349 c 219,0 351,4 353,10 2,5 2,52 0,105 l -3,95 h -235 -234 v 65 65 h 205 205 v 100 100 h -205 -205 v 60 60 l 233,2 232,3 3,108 3,107 h -351 -350 z"
       id="path48" />
    <path
       d="m 126,245 c -9,-26 -7,-32 5,-12 6,10 9,21 6,23 -2,3 -7,-2 -11,-11 z"
       id="path49" />
    <path
       d="m 15,200 c -3,-5 -4,-14 0,-19 3,-5 1,-12 -5,-16 -5,-3 -10,-11 -10,-18 0,-6 6,-2 14,8 8,11 11,26 8,34 -4,10 -1,12 8,6 9,-5 11,-4 6,3 -9,15 -13,15 -21,2 z"
       id="path50" />
    <path
       d="m 156,192 c -3,-5 1,-9 9,-9 8,0 12,4 9,9 -3,4 -7,8 -9,8 -2,0 -6,-4 -9,-8 z"
       id="path51" />
    <path
       d="m 56,162 c -3,-5 1,-9 9,-9 8,0 12,4 9,9 -3,4 -7,8 -9,8 -2,0 -6,-4 -9,-8 z"
       id="path52" />
    <path
       d="m 94,128 c -4,-7 -4,-10 1,-6 4,4 15,2 24,-5 14,-11 14,-10 2,6 -16,20 -18,21 -27,5 z"
       id="path53" />
    <path
       d="m 26,122 c -2,-4 4,-8 14,-8 10,0 16,4 14,8 -3,4 -9,8 -14,8 -5,0 -11,-4 -14,-8 z"
       id="path54" />
    <path
       d="m 73,90 c -1,-11 2,-22 6,-24 4,-3 7,4 6,14 -2,27 -10,33 -12,10 z"
       id="path55" />
    <path
       d="M 0,90 C 0,85 9,76 20,70 31,64 40,61 40,62 40,64 31,73 20,83 9,92 0,96 0,90 Z"
       id="path56" />
    <path
       d="m 2,10205 c -1,-13 2,-26 7,-30 5,-3 7,4 4,14 -4,15 0,19 14,17 10,-2 12,-1 5,1 -7,3 -10,9 -7,14 4,5 0,9 -7,9 -8,0 -15,-11 -16,-25 z"
       id="path57" />
    <path
       d="m 101,10217 c -8,-10 -7,-14 2,-14 8,0 14,6 14,14 0,7 -1,13 -2,13 -2,0 -8,-6 -14,-13 z"
       id="path58" />
    <path
       d="m 136,10193 c -6,-14 -5,-15 5,-6 7,7 10,15 7,18 -3,3 -9,-2 -12,-12 z"
       id="path59" />
    <path
       d="m 17745,10189 c -4,-6 -5,-12 -2,-15 2,-3 7,2 10,11 7,17 1,20 -8,4 z"
       id="path60" />
    <path
       d="m 224,10168 -19,-23 25,20 c 14,11 27,21 29,22 2,2 0,3 -6,3 -5,0 -18,-10 -29,-22 z"
       id="path61" />
    <path
       d="m 17707,10169 c 7,-7 15,-10 18,-7 3,3 -2,9 -12,12 -14,6 -15,5 -6,-5 z"
       id="path62" />
    <path
       d="m 36,10158 c 3,-5 -2,-19 -12,-31 -10,-12 -12,-16 -4,-10 11,10 17,10 29,0 14,-10 14,-10 3,5 -9,11 -10,18 -2,23 15,9 12,22 -5,22 -8,0 -12,-4 -9,-9 z"
       id="path63" />
    <path
       d="m 115,10161 c -3,-5 -2,-12 3,-15 5,-3 9,1 9,9 0,17 -3,19 -12,6 z"
       id="path64" />
    <path
       d="m 150,10150 c -9,-6 -10,-10 -3,-10 6,0 15,5 18,10 8,12 4,12 -15,0 z"
       id="path65" />
    <path
       d="m 32,10064 c -7,-8 -8,-14 -3,-14 10,0 25,19 20,25 -2,1 -10,-3 -17,-11 z"
       id="path66" />
    <path
       d="m 21,10028 c -1,-20 14,-24 25,-6 4,6 3,8 -4,4 -5,-3 -13,0 -15,6 -3,8 -6,6 -6,-4 z"
       id="path67" />
    <path
       d="m 17786,10013 c -6,-14 -5,-15 5,-6 7,7 10,15 7,18 -3,3 -9,-2 -12,-12 z"
       id="path68" />
    <path
       d="m 8810,8934 c -166,-11 -434,-59 -665,-119 -628,-163 -1155,-461 -1585,-895 -319,-322 -600,-760 -765,-1190 -51,-133 -127,-391 -150,-509 -19,-96 -57,-350 -62,-418 l -6,-83 h 172 171 v -90 -90 h -177 -176 l 7,-202 c 3,-112 13,-250 22,-308 33,-229 100,-505 156,-645 l 24,-60 302,-3 302,-2 v 140 140 h 170 170 v -371 c 0,-296 -3,-369 -12,-362 -16,13 -144,17 -238,7 -62,-6 -70,-9 -72,-28 -1,-11 -4,29 -7,89 l -6,110 -247,3 c -137,1 -248,0 -248,-2 0,-6 82,-139 158,-256 69,-106 175,-251 260,-354 l 65,-79 -89,-83 c -49,-46 -91,-83 -94,-83 -3,0 -90,69 -195,154 -104,85 -192,155 -195,155 -3,0 -5,-92 -5,-205 v -205 h -78 -79 l -151,145 c -83,80 -154,145 -159,145 -4,0 -8,-65 -8,-145 v -145 h -305 -305 v -30 -30 l 1537,2 1536,3 23,88 c 78,293 341,646 614,822 240,156 389,208 722,255 79,12 163,27 188,35 99,33 160,116 160,219 0,124 -101,228 -249,256 -33,6 -310,10 -715,10 -736,0 -784,3 -993,64 -288,83 -563,252 -733,450 -192,224 -294,447 -351,770 -18,103 -21,143 -15,266 3,80 8,163 11,185 34,247 122,485 266,717 65,106 100,148 229,282 321,331 713,549 1155,641 118,25 467,53 524,42 20,-4 34,5 74,49 65,71 191,148 297,181 76,24 101,27 235,28 130,0 160,-3 225,-23 104,-33 227,-96 312,-160 l 72,-54 35,20 c 20,11 74,31 121,44 82,22 98,23 465,23 378,0 381,0 507,-28 69,-15 160,-38 202,-52 42,-14 93,-25 114,-25 36,0 36,0 17,19 -11,10 -95,68 -186,129 -381,254 -815,449 -1227,552 -134,33 -127,32 -327,66 -129,21 -187,25 -420,28 -148,2 -295,2 -325,0 z m 1020,-354 v -60 h -66 c -56,0 -65,2 -60,16 3,9 6,36 6,60 v 44 h 60 60 z M 7180,8040 v -60 h -60 -60 v 60 60 h 60 60 z M 6050,6340 v -60 h -60 -60 v 60 60 h 60 60 z m 320,-1257 c 0,-242 -12,-527 -21,-512 -5,9 -43,10 -158,3 -123,-7 -152,-7 -156,4 -3,8 -5,164 -5,348 v 334 h 170 170 z m 1024,-816 c -3,-361 -4,-393 -13,-379 -6,10 -41,12 -149,10 -88,-2 -144,1 -146,7 -3,6 -6,-3 -7,-20 -5,-66 -17,183 -18,388 l -1,217 h 168 167 z m 316,-710 v -53 l -145,-2 -145,-1 v 54 55 h 145 145 z"
       id="path69" />
    <path
       d="m 9292,8217 c -5,-7 -15,-29 -21,-49 -12,-37 -14,-38 -59,-38 -26,0 -56,-3 -67,-6 -16,-4 -25,5 -45,41 -14,25 -32,45 -41,45 -9,0 -45,-11 -80,-24 -49,-19 -63,-29 -61,-43 16,-118 20,-104 -39,-150 l -53,-41 -40,34 -41,35 -25,-29 c -14,-16 -40,-46 -59,-68 -32,-38 -33,-38 -29,-11 l 5,27 h -104 -105 l 6,-47 c 3,-27 8,-79 11,-118 3,-38 10,-95 15,-125 25,-147 51,-298 56,-322 6,-25 3,-28 -22,-30 -46,-2 -76,-5 -120,-13 l -40,-7 -37,129 c -20,70 -57,211 -82,313 -25,101 -47,186 -49,187 -5,5 -93,-9 -105,-17 -9,-5 -9,-14 -1,-34 13,-36 8,-42 -37,-51 -48,-9 -199,-67 -274,-105 l -57,-29 -34,44 c -18,25 -38,45 -44,45 -12,0 -248,-161 -278,-190 -18,-18 -18,-19 14,-47 l 33,-29 -99,-86 c -101,-86 -244,-233 -244,-249 0,-16 -25,-10 -63,17 -31,21 -41,23 -53,13 -15,-12 -141,-200 -150,-223 -3,-7 19,-23 54,-40 l 59,-28 -34,-56 c -18,-31 -47,-91 -65,-134 l -32,-77 -42,6 c -43,6 -43,6 -52,-33 -27,-104 -27,-102 15,-106 28,-2 37,-7 34,-18 -2,-8 -6,-84 -9,-168 l -4,-152 -41,-7 -40,-6 6,-64 c 4,-35 9,-68 13,-74 3,-6 23,-7 47,-4 l 42,7 18,-69 c 10,-37 29,-95 42,-128 l 25,-59 -23,-26 c -12,-14 -33,-40 -46,-59 l -24,-34 24,-45 c 13,-25 45,-77 72,-115 l 49,-69 50,48 c 34,33 52,45 55,36 12,-33 111,-138 189,-200 92,-74 245,-170 308,-193 l 38,-14 -5,-57 -5,-58 111,-35 c 141,-44 160,-46 165,-20 2,11 7,23 10,27 4,3 48,-3 97,-14 85,-19 122,-20 695,-18 642,1 672,-1 797,-48 82,-31 167,-96 221,-168 65,-87 87,-154 87,-264 -1,-71 -5,-95 -28,-143 -33,-72 -114,-153 -187,-188 -60,-29 -223,-71 -365,-94 -135,-22 -258,-45 -262,-49 -2,-1 3,-22 12,-45 l 14,-42 -135,-64 c -75,-36 -158,-80 -184,-99 l -48,-34 -28,29 c -15,16 -33,29 -40,29 -13,0 -264,-245 -264,-258 1,-5 68,-60 98,-78 2,-1 -18,-35 -45,-76 -69,-103 -106,-170 -146,-268 -34,-81 -77,-230 -77,-264 0,-15 52,-16 548,-16 301,0 556,3 567,6 11,3 32,22 46,43 35,50 136,116 213,140 34,10 120,29 191,41 158,26 377,77 385,90 6,10 136,70 151,70 5,0 13,-9 17,-19 6,-18 18,-13 118,54 62,40 115,78 118,84 4,6 -7,32 -25,57 l -32,47 29,21 c 156,113 279,238 342,348 15,27 29,48 32,48 3,0 23,-22 45,-50 22,-27 42,-49 45,-49 3,0 36,51 73,115 l 69,115 -56,74 -55,74 25,55 c 14,30 33,87 42,126 l 17,71 41,-6 41,-6 6,53 c 12,94 11,95 -33,103 l -40,7 v 66 c 0,63 -9,139 -25,224 -7,36 -6,37 29,43 20,4 38,11 41,15 2,4 -5,36 -17,70 l -21,62 -41,-5 -42,-6 -28,57 c -15,31 -48,85 -72,119 l -44,62 45,38 c 25,20 45,40 45,44 0,11 -120,153 -137,162 -14,9 -78,-28 -103,-58 -9,-11 -26,1 -78,52 -37,36 -118,101 -179,145 -62,44 -113,84 -113,89 0,4 4,11 10,14 5,3 14,14 20,25 8,16 -2,24 -83,65 -99,51 -245,115 -262,115 -5,0 -22,-23 -37,-50 -16,-28 -32,-50 -37,-50 -6,0 -46,11 -89,25 -62,20 -306,75 -330,75 -2,0 -2,15 1,33 l 5,34 -141,6 c -181,9 -365,9 -498,1 l -105,-7 4,-33 4,-34 h -43 c -24,0 -61,3 -81,6 -33,6 -38,10 -38,34 0,27 -2,27 -76,33 -47,4 -102,18 -148,36 -41,16 -105,39 -142,50 -122,36 -182,96 -224,222 -18,52 -21,81 -18,156 3,82 8,99 41,165 21,40 55,94 77,120 81,94 248,182 404,214 125,25 378,29 586,8 102,-10 248,-18 325,-18 146,0 188,8 375,68 71,23 76,23 100,7 34,-23 218,-108 360,-167 124,-52 454,-217 665,-333 71,-39 134,-71 138,-71 19,0 -10,22 -143,110 -138,91 -169,115 -110,85 16,-8 37,-15 48,-15 17,0 85,-39 138,-79 11,-9 0,4 -25,28 -25,24 -100,84 -166,132 -173,128 -315,241 -315,250 0,20 23,18 57,-7 l 38,-27 -32,32 c -37,35 -39,40 -19,66 14,20 3,29 429,-338 127,-110 260,-211 456,-346 83,-58 151,-106 151,-108 0,-10 -145,36 -226,72 -88,39 -86,29 6,-30 177,-114 330,-173 413,-160 74,11 143,51 176,102 69,103 21,225 -106,273 -57,21 -173,28 -173,10 0,-5 8,-10 18,-10 30,0 140,-58 156,-82 9,-13 19,-38 22,-56 8,-38 4,-39 -97,-16 -125,28 -185,77 -571,466 -192,193 -348,354 -348,359 0,11 0,11 110,37 47,11 213,52 370,92 405,101 800,191 811,185 5,-3 16,-32 25,-63 30,-101 3,-295 -51,-379 -20,-30 -12,-29 39,6 130,90 226,260 226,403 v 48 l 46,-7 47,-6 -5,94 c -7,123 -23,174 -71,221 -58,56 -115,78 -265,103 -140,24 -599,79 -752,91 -58,4 -99,13 -130,29 -65,33 -154,48 -345,60 -49,3 -111,8 -137,11 -27,3 -48,2 -48,-3 0,-11 90,-82 132,-105 l 32,-18 -70,-31 c -79,-36 -137,-45 -366,-55 l -157,-7 -86,39 c -46,21 -85,42 -85,46 0,19 90,108 124,123 21,9 37,18 34,20 -6,6 -171,-22 -251,-43 l -68,-17 26,-35 c 14,-18 25,-38 25,-43 0,-10 -130,-137 -141,-137 -8,0 -29,47 -29,65 0,7 19,29 42,49 l 41,36 -72,72 -72,73 -22,-25 c -47,-52 -49,-52 -110,-19 -61,33 -66,43 -48,107 11,38 3,44 -95,72 -47,14 -65,15 -72,7 z m 73,-298 c 28,-13 70,-44 95,-69 65,-64 92,-127 98,-225 6,-110 -20,-179 -97,-256 -70,-70 -133,-94 -241,-93 -59,1 -88,6 -133,27 -66,30 -142,104 -169,165 -82,185 11,408 194,468 65,21 191,13 253,-17 z m 1677,-41 c 48,-14 130,-86 148,-128 7,-16 14,-30 16,-30 3,0 34,19 70,42 75,47 67,46 293,23 404,-42 538,-76 604,-154 30,-36 35,-56 11,-47 -9,3 -46,9 -82,12 -55,5 -95,0 -227,-29 -164,-36 -193,-42 -256,-51 -34,-5 -35,-4 -47,40 -14,53 -57,84 -115,84 -90,0 -140,-69 -115,-160 7,-25 7,-25 -185,-72 -106,-26 -203,-50 -217,-52 -14,-2 -65,-14 -115,-25 -194,-45 -246,-54 -257,-43 -17,17 -1,30 45,37 85,13 96,25 56,61 -27,24 -94,22 -176,-4 -32,-11 -84,-22 -115,-26 -76,-8 -124,-32 -149,-74 -11,-19 -17,-37 -14,-40 3,-3 5,-1 5,5 0,6 14,-2 30,-17 27,-25 30,-34 30,-87 -1,-116 -66,-192 -173,-201 -63,-4 -112,14 -167,64 -64,58 -77,142 -36,230 28,61 59,87 123,103 26,7 55,16 63,20 22,11 87,138 101,197 l 12,51 156,22 c 86,12 163,22 171,23 8,2 70,-11 138,-27 87,-21 124,-34 127,-46 16,-51 101,-99 175,-99 197,0 253,242 77,332 -83,42 -199,13 -244,-62 -9,-17 -21,-30 -26,-30 -18,0 -102,23 -110,30 -16,14 127,111 193,131 39,12 139,10 182,-3 z m -2485,-44 c 5,-14 -38,-27 -50,-15 -5,5 -6,14 -2,21 8,14 47,9 52,-6 z m 1508,-58 c 33,-26 75,-80 75,-98 0,-5 -6,-8 -14,-8 -16,0 -46,-58 -46,-89 0,-26 -34,-61 -57,-61 -10,0 -35,3 -55,6 -34,6 -38,10 -38,37 v 30 l 21,-27 c 12,-15 30,-26 44,-26 28,0 65,43 65,75 0,46 -69,78 -102,48 -20,-18 -20,-18 -18,7 4,44 1,47 -50,54 -27,4 -50,11 -50,15 0,5 16,23 37,41 33,30 40,32 94,28 43,-3 66,-11 94,-32 z m 975,-45 c 36,-36 46,-73 30,-112 -23,-53 -92,-74 -150,-44 -34,18 -50,43 -50,80 0,92 107,140 170,76 z m -2930,10 c 0,-5 2,-16 6,-24 4,-11 -17,-21 -83,-42 -48,-15 -123,-43 -165,-62 -64,-29 -80,-33 -93,-23 -8,7 -15,18 -15,25 0,15 93,58 220,101 100,34 130,40 130,25 z m 600,-145 v -84 l -42,5 c -87,9 -88,10 -88,52 0,21 3,52 6,69 7,32 18,37 92,41 l 32,1 z m -1102,31 c 60,-30 144,-124 250,-282 83,-123 112,-174 112,-195 0,-10 -105,-80 -120,-80 -6,0 -10,5 -10,10 0,6 -34,63 -76,127 -102,156 -220,271 -369,358 -15,9 -9,16 46,53 71,48 89,49 167,9 z m 2262,-47 v -80 h -65 -65 v 80 80 h 65 65 z m -1710,-44 c 0,-19 -16,-31 -97,-70 -124,-60 -143,-64 -165,-32 l -17,24 62,33 c 65,35 197,80 209,72 5,-2 8,-15 8,-27 z m 3328,22 c 7,-7 12,-21 12,-33 0,-30 -19,-45 -56,-45 -31,0 -44,13 -44,45 0,36 62,59 88,33 z M 7533,7326 c 42,-42 53,-89 32,-138 -27,-67 -158,-106 -206,-62 -67,61 -64,157 7,213 20,15 41,21 80,21 47,0 57,-4 87,-34 z m 1260,-19 c 21,-30 37,-58 37,-64 0,-5 -18,-24 -40,-42 -46,-37 -48,-36 -102,32 l -32,40 49,43 c 28,24 50,44 51,44 0,0 17,-24 37,-53 z m 947,-82 c 0,-16 -103,-115 -121,-115 -9,0 -31,16 -48,36 l -32,35 47,52 c 26,29 51,63 57,75 11,23 12,23 54,-25 23,-26 42,-52 43,-58 z m -1521,71 c -12,-11 -161,-67 -166,-62 -3,3 5,10 18,15 13,5 47,18 74,29 45,19 85,28 74,18 z M 7193,7158 c -32,-31 -43,-37 -61,-31 -21,8 -18,12 36,68 l 57,60 3,-29 c 3,-23 -5,-37 -35,-68 z m 1835,-39 c 23,-7 42,-15 42,-17 0,-27 -35,-122 -45,-122 -13,0 -110,42 -133,58 -11,7 -7,21 18,65 30,54 33,56 53,43 12,-8 41,-20 65,-27 z m -439,7 c 7,-17 20,-25 49,-29 21,-4 46,-15 56,-25 16,-18 13,-19 -101,-25 -126,-6 -212,-22 -333,-61 -41,-13 -78,-22 -83,-19 -4,2 -16,22 -27,43 l -20,39 21,12 c 40,21 126,47 210,63 114,21 127,23 177,25 36,1 44,-3 51,-23 z m 820,-69 c 6,-35 11,-66 11,-69 0,-3 -26,-9 -57,-13 -32,-3 -67,-9 -79,-11 -19,-5 -22,1 -31,58 -6,35 -9,65 -7,67 3,3 114,27 140,30 7,0 17,-26 23,-62 z m -1730,26 c -31,-42 -145,-153 -156,-153 -14,0 146,168 161,169 5,1 3,-7 -5,-16 z m -566,-14 c 143,-48 337,-169 432,-270 25,-26 31,-36 15,-26 -36,25 -48,21 -56,-18 -3,-19 -11,-38 -16,-41 -5,-3 -1,-15 9,-26 10,-11 -17,5 -60,35 -91,65 -259,150 -404,203 l -102,37 42,49 c 23,27 46,56 52,64 13,18 14,18 88,-7 z m 757,-283 c 11,-22 9,-28 -18,-63 -41,-51 -78,-134 -93,-210 l -12,-63 h -42 c -23,0 -44,3 -47,6 -9,8 19,118 31,122 5,2 8,9 5,17 -6,14 9,49 32,75 7,8 29,34 49,57 20,23 40,42 43,42 4,-1 14,-1 22,0 12,1 13,3 1,10 -7,5 -10,14 -7,20 11,17 21,13 36,-13 z m -617,-55 c 26,-13 67,-43 91,-66 31,-30 48,-40 59,-34 9,6 19,4 26,-4 18,-22 41,-97 41,-133 0,-28 -4,-34 -21,-34 -11,0 -28,4 -37,9 -14,7 -17,4 -19,-20 -7,-94 -98,-202 -197,-233 -130,-41 -264,39 -312,187 -9,29 -21,57 -26,62 -6,6 -7,4 -3,-7 5,-13 2,-18 -10,-18 -11,0 -15,5 -11,15 3,8 1,15 -4,15 -11,0 0,39 33,112 32,73 99,139 163,160 68,23 165,18 227,-11 z m 512,-483 c 8,-56 48,-147 89,-200 l 25,-33 -37,-16 c -36,-15 -37,-15 -38,5 -1,12 -15,44 -31,72 -17,27 -36,67 -43,88 -9,28 -15,35 -23,27 -9,-9 -8,-14 2,-20 8,-5 14,-22 15,-39 0,-17 4,-28 8,-26 10,7 18,-12 24,-53 l 4,-38 -18,30 c -10,17 -28,55 -39,85 -46,119 -50,151 -20,149 9,0 9,-2 0,-6 -16,-6 -17,-24 -2,-20 6,1 14,-4 17,-12 3,-8 0,-11 -7,-7 -7,5 -9,1 -5,-8 12,-32 26,-16 19,23 -5,33 -3,40 12,44 38,10 41,6 48,-45 z m -953,-178 c 6,-30 20,-74 30,-98 20,-48 22,-62 10,-62 -15,0 -62,171 -67,240 -5,71 -6,75 27,-80 z m 734,98 c 3,-13 16,-36 26,-51 11,-16 19,-29 17,-30 -2,-2 -37,-13 -78,-26 -184,-58 -357,-174 -512,-347 -29,-33 -53,-58 -52,-56 1,3 -4,16 -11,31 -8,15 -19,53 -25,85 -12,67 -12,68 87,170 90,93 219,173 352,219 61,22 76,24 137,26 45,1 53,-2 59,-21 z m -568,-119 c -3,-9 -12,0 -22,21 l -18,35 22,-21 c 12,-12 20,-28 18,-35 z m 621,-84 c 17,-24 45,-54 62,-66 30,-21 30,-21 11,-43 -11,-11 -24,-30 -30,-40 -9,-18 -17,-12 -95,62 -60,58 -80,82 -69,87 8,3 22,0 31,-7 14,-11 14,-11 3,4 -11,14 -10,19 10,32 33,24 41,20 77,-29 z m 376,-24 c 6,-29 8,-30 65,-30 57,1 59,2 65,30 7,33 10,33 54,18 31,-11 41,-32 20,-44 -16,-11 -8,-21 51,-60 54,-37 55,-37 69,-16 18,28 39,26 67,-5 31,-33 30,-40 -6,-59 -31,-16 -37,-29 -20,-40 5,-3 16,-27 23,-53 13,-44 16,-47 50,-50 31,-3 37,-7 37,-27 0,-13 3,-30 6,-39 4,-11 -4,-15 -38,-18 -43,-3 -43,-3 -49,-49 -4,-26 -14,-58 -24,-72 -16,-25 -15,-26 14,-43 17,-10 31,-22 31,-27 0,-12 -40,-77 -47,-77 -3,0 -17,9 -33,20 -27,19 -28,19 -44,1 -9,-10 -34,-26 -56,-36 -42,-19 -46,-28 -30,-69 8,-23 7,-26 -13,-26 -12,0 -32,-3 -44,-6 -19,-5 -23,-1 -28,30 l -7,36 h -59 c -44,0 -59,-4 -59,-14 0,-8 -8,-23 -17,-35 -16,-20 -22,-21 -51,-10 -34,12 -36,21 -16,72 4,11 -4,21 -24,31 -17,9 -40,28 -51,42 l -21,27 -29,-27 -29,-28 -28,41 c -15,23 -25,43 -23,44 2,2 16,11 32,20 24,16 26,20 15,40 -7,12 -15,45 -18,72 -5,50 -5,50 -43,53 l -39,3 7,37 c 9,46 8,46 42,35 28,-10 28,-9 49,56 21,64 21,66 3,79 -24,17 -24,43 0,73 l 19,24 24,-23 25,-22 56,37 c 46,30 54,40 46,54 -15,29 -11,38 24,48 17,5 35,10 39,10 3,1 9,-12 13,-28 z m 1225,-191 c -11,-193 -37,-501 -44,-507 -2,-3 -48,1 -103,7 -54,7 -128,9 -165,5 l -68,-6 v 244 c 0,134 -3,285 -6,335 l -7,92 194,2 c 107,2 197,1 201,-2 4,-3 3,-79 -2,-170 z m -1833,65 c 67,-27 106,-110 84,-177 -14,-42 -62,-90 -93,-94 -13,-1 -23,-3 -23,-4 0,-1 -19,-4 -43,-6 -30,-2 -41,0 -36,8 5,8 2,9 -9,5 -10,-3 -17,-2 -17,3 0,6 -6,9 -12,8 -7,-2 -12,3 -10,10 1,8 -2,11 -8,7 -15,-9 -50,55 -50,93 0,40 19,79 57,113 57,53 94,60 160,34 z m 1351,-32 -3,-28 -122,-3 c -73,-1 -123,1 -123,7 0,5 -3,16 -6,24 -7,19 20,23 159,25 l 98,2 z m 752,1 c 84,-16 119,-26 202,-56 56,-20 57,-20 42,-43 l -15,-23 -57,19 c -64,22 -285,69 -326,69 -28,0 -42,20 -32,46 7,18 47,15 186,-12 z m 600,-20 c 44,-20 80,-40 80,-44 0,-4 -19,-15 -42,-26 -59,-26 -192,-161 -261,-265 -31,-48 -78,-131 -103,-185 -25,-55 -51,-104 -56,-111 -8,-9 -25,-2 -71,29 -34,23 -64,43 -66,44 -6,5 108,257 129,284 11,14 20,29 20,34 0,5 20,37 45,71 59,83 191,205 222,205 13,0 60,-16 103,-36 z M 7566,5653 c -10,-55 -75,-142 -132,-178 -38,-23 -63,-30 -116,-33 -37,-3 -83,-1 -101,2 -43,8 -112,67 -137,117 -22,41 -26,79 -10,79 6,0 10,-9 10,-20 0,-47 62,-121 127,-154 99,-50 257,10 302,113 12,28 24,64 27,81 4,17 13,30 21,30 12,0 14,-8 9,-37 z m 1819,-64 c 28,-5 87,-21 133,-35 l 83,-25 -20,-28 -20,-28 -111,28 c -61,16 -124,30 -140,31 -27,2 -30,5 -30,39 0,40 -6,39 105,18 z m -665,-24 v -35 h -54 c -29,0 -74,-3 -100,-6 l -46,-7 v 36 c 0,41 5,42 133,45 l 67,2 z m 1420,5 c 14,-11 30,-20 36,-20 18,0 34,-24 25,-38 -6,-9 -20,-6 -57,14 -27,15 -50,28 -52,29 -5,4 10,35 17,35 3,0 17,-9 31,-20 z m 207,-139 c 32,-27 77,-69 101,-93 36,-38 41,-47 29,-57 -12,-10 -28,0 -88,53 -41,35 -87,74 -102,87 -20,17 -26,29 -22,42 10,25 18,22 82,-32 z m -180,-7 c 100,-76 79,-214 -41,-265 -22,-10 -33,-10 -47,-1 -10,7 -27,12 -36,11 -16,0 -15,-2 2,-9 15,-7 16,-9 4,-9 -9,-1 -24,9 -33,22 -9,12 -14,16 -10,9 5,-11 2,-12 -15,-3 -30,17 -71,81 -71,114 0,33 24,94 48,121 46,52 138,57 199,10 z M 8690,5310 c -14,-4 -72,-8 -130,-7 -104,1 -105,1 -30,7 114,10 190,10 160,0 z m 640,-5 c 47,-9 132,-36 127,-41 -5,-5 -186,41 -195,51 -4,4 2,5 13,2 11,-3 36,-8 55,-12 z m -1841,-95 c 6,0 11,-4 11,-10 0,-5 -3,-10 -7,-10 -14,0 -128,60 -153,81 -14,11 12,2 57,-21 44,-22 86,-40 92,-40 z m 3122,-41 18,-26 -52,18 c -51,18 -58,29 -35,57 12,14 35,-2 69,-49 z m -254,-23 c -25,-19 -12,-43 40,-77 48,-30 60,-29 111,8 41,31 58,25 116,-37 39,-42 50,-49 66,-40 29,16 38,12 55,-21 12,-22 13,-34 6,-43 -8,-10 -4,-26 15,-60 14,-25 32,-69 39,-96 l 13,-49 -32,-7 c -17,-3 -36,-10 -42,-15 -8,-7 -13,12 -16,65 -8,122 -71,202 -189,241 -62,21 -113,14 -197,-26 -113,-55 -169,-166 -143,-283 11,-51 54,-124 90,-154 31,-25 116,-62 145,-62 16,0 27,-3 23,-6 -14,-14 -98,9 -154,43 -44,26 -67,47 -83,77 -39,76 -44,79 -96,71 -55,-8 -64,0 -64,58 0,33 -4,39 -30,48 -36,13 -36,14 -9,59 55,90 131,180 223,262 91,80 101,87 115,73 15,-15 14,-17 -2,-29 z m -397,-82 c 46,-30 54,-52 12,-30 -42,22 -132,106 -132,123 0,10 15,0 40,-25 21,-23 57,-53 80,-68 z m -637,43 c 33,-9 61,-18 63,-20 4,-3 -20,-75 -30,-94 -1,0 -39,5 -86,13 -60,10 -182,14 -417,14 h -333 v 33 c 0,17 -3,43 -7,56 l -6,23 379,-5 c 295,-4 392,-8 437,-20 z m -966,-54 c -3,-10 -5,-4 -5,12 0,17 2,24 5,18 2,-7 2,-21 0,-30 z m -259,-22 267,-6 3,-22 c 3,-22 1,-23 -85,-23 -140,1 -385,18 -423,30 -19,7 -41,14 -48,16 -7,2 -10,8 -7,14 4,6 11,7 17,4 5,-3 130,-9 276,-13 z m 2452,-106 c 61,-31 100,-105 99,-182 0,-26 -3,-43 -5,-36 -6,15 -34,5 -34,-11 0,-22 -90,-79 -130,-82 -71,-5 -122,31 -184,126 -26,42 -22,72 19,126 56,73 157,99 235,59 z m -844,-30 c -4,-10 1,-15 15,-15 14,0 19,-5 16,-14 -4,-9 2,-18 15,-22 15,-5 17,-8 7,-14 -10,-7 -10,-12 -1,-23 6,-7 29,-45 50,-84 l 39,-70 -28,-17 c -15,-9 -30,-16 -33,-16 -3,0 -18,23 -32,52 -15,29 -43,75 -64,103 l -38,52 26,41 c 28,43 38,53 28,27 z m 1043,-281 c -6,-8 -17,-14 -23,-14 -7,0 -31,-18 -55,-40 -53,-49 -84,-66 -136,-74 -40,-6 -40,-6 7,9 54,18 149,100 168,145 15,37 25,34 11,-4 -6,-15 -7,-26 -1,-26 8,0 27,54 32,90 1,8 3,-4 5,-28 3,-25 -1,-50 -8,-58 z m 86,-136 c -2,-13 -6,-48 -10,-78 -7,-58 -66,-213 -73,-192 -2,7 7,41 21,75 14,34 31,97 38,140 7,42 16,77 20,77 4,0 6,-10 4,-22 z m -970,-5 c -3,-10 -13,-55 -21,-101 -20,-117 -49,-170 -101,-186 -20,-6 -19,-3 13,73 22,50 37,103 41,144 5,53 10,67 27,75 33,17 49,14 41,-5 z m 387,-44 c 96,-32 229,-103 314,-168 82,-62 215,-192 177,-172 -12,6 -28,8 -36,5 -19,-7 -37,-48 -37,-85 v -31 l -62,57 c -123,111 -333,231 -490,280 l -84,26 25,54 26,54 h 53 c 29,1 80,-8 114,-20 z m 416,-64 c -10,-23 -28,-34 -28,-18 0,7 31,43 36,43 2,0 -2,-11 -8,-25 z m -559,-132 41,-27 -33,-27 c -37,-32 -47,-35 -47,-14 0,8 5,15 11,15 5,0 7,5 4,10 -3,6 2,10 12,11 12,0 14,2 4,6 -7,3 -40,-21 -77,-58 -61,-61 -64,-62 -79,-44 -8,11 -15,24 -15,29 0,16 104,124 122,125 9,0 35,-11 57,-26 z m -188,-255 c 60,-121 139,-307 139,-331 0,-5 6,-23 14,-40 28,-67 36,-88 36,-102 0,-20 -308,-133 -328,-121 -5,3 -12,19 -16,36 -16,82 -105,309 -202,519 -19,40 -34,75 -32,76 2,1 28,10 58,20 58,19 208,90 225,106 14,14 26,-6 106,-163 z m 477,73 c 111,-57 97,-216 -24,-267 -48,-20 -75,-17 -121,12 -74,49 -99,124 -63,193 39,77 128,103 208,62 z M 9263,3900 c 9,-52 19,-106 22,-120 3,-14 17,-88 31,-165 13,-77 31,-168 39,-203 24,-101 22,-109 -27,-120 -24,-6 -73,-19 -109,-30 l -66,-20 -20,72 c -34,119 -124,420 -134,441 -4,11 -16,45 -25,75 -9,30 -20,68 -25,83 -10,33 -18,29 121,56 58,12 119,25 135,30 17,4 33,6 36,2 3,-3 13,-49 22,-101 z m 137,60 c 0,-5 -2,-10 -4,-10 -3,0 -8,5 -11,10 -3,6 -1,10 4,10 6,0 11,-4 11,-10 z m 686,-118 c -2,-2 -11,11 -20,28 -12,26 -13,36 -4,54 11,19 13,16 20,-29 4,-27 5,-51 4,-53 z m 494,4 c -26,-54 -90,-121 -142,-147 -53,-27 -136,-35 -193,-19 -25,7 -45,16 -45,21 0,4 19,2 41,-6 59,-21 116,-18 174,9 66,30 138,110 155,171 10,37 15,43 22,31 7,-12 3,-30 -12,-60 z m -1084,16 11,-29 -59,-12 c -32,-6 -65,-14 -73,-18 -11,-4 -15,3 -15,24 0,28 4,31 53,45 72,21 71,21 83,-10 z m -604,-96 c 5,-22 -4,-29 -96,-72 -56,-26 -125,-62 -154,-81 -29,-18 -56,-33 -60,-33 -4,0 -13,9 -20,21 -11,18 -11,23 5,35 27,20 294,154 308,154 7,0 15,-11 17,-24 z m 693,-98 c 17,-61 19,-58 -22,-58 -21,0 -64,-6 -95,-14 l -56,-13 -7,35 c -3,19 -4,37 -1,40 6,5 124,29 158,31 9,1 19,-9 23,-21 z M 8494,3558 c 52,-65 136,-184 186,-265 l 92,-146 -48,-43 c -27,-24 -54,-43 -60,-44 -6,0 -63,69 -126,153 -64,83 -155,191 -203,238 l -86,86 67,72 c 38,39 72,70 76,69 4,-2 49,-56 102,-120 z m 1676,97 c -7,-9 -15,-13 -19,-10 -3,3 1,10 9,15 21,14 24,12 10,-5 z M 8959,3543 c 1,-13 -5,-23 -11,-23 -7,0 -64,-25 -127,-55 l -115,-56 -20,21 -21,21 25,21 c 29,23 121,71 200,104 60,24 68,21 69,-33 z m 1417,16 c -73,-63 -116,-89 -116,-69 0,6 4,10 8,10 4,0 37,22 72,49 72,54 92,60 36,10 z m -751,-148 c -6,-4 -39,-14 -74,-20 -34,-7 -70,-15 -80,-18 -12,-4 -13,-3 -5,6 5,6 41,17 80,25 89,18 90,18 79,7 z M 8370,3258 c 0,-4 -15,-29 -34,-55 -53,-76 -117,-200 -142,-277 l -22,-71 -46,-3 -46,-3 6,33 c 19,100 106,282 193,405 l 34,47 28,-34 c 16,-19 29,-38 29,-42 z m 635,63 c -17,-15 -168,-91 -172,-87 -5,4 49,37 122,75 42,21 66,27 50,12 z m 1043,-72 c 12,-18 9,-22 -40,-43 -100,-44 -115,-43 -102,8 6,24 36,42 61,38 6,-2 14,1 16,5 11,17 53,12 65,-8 z m -257,-111 c -6,-6 -101,-25 -326,-65 -49,-8 -121,-23 -160,-33 -38,-10 -73,-15 -76,-12 -15,16 -19,50 -6,55 7,3 105,21 217,41 113,20 237,42 275,49 67,12 70,12 76,-8 3,-11 3,-23 0,-27 z m -717,-75 c 20,-59 20,-79 0,-33 -15,34 -16,34 -25,12 -5,-12 -19,-26 -31,-31 -32,-12 -126,-98 -133,-121 -5,-15 -12,-18 -34,-14 -18,4 -32,0 -40,-10 -15,-18 -41,-21 -41,-5 0,20 59,97 107,138 58,52 164,122 174,116 4,-3 14,-26 23,-52 z m -629,-66 c -29,-46 -57,-95 -60,-110 -4,-15 -12,-27 -17,-27 -19,0 3,53 50,123 60,90 65,97 74,97 4,0 -17,-37 -47,-83 z"
       id="path70" />
    <path
       d="m 9115,7841 c -51,-23 -119,-96 -135,-146 -27,-83 4,-197 72,-262 170,-163 449,-30 425,203 -10,97 -80,187 -166,212 -57,18 -150,14 -196,-7 z m 185,-71 c 40,-20 75,-61 82,-94 5,-31 -16,-28 -34,4 -54,95 -199,92 -255,-6 -13,-21 -23,-34 -23,-29 0,6 -5,3 -11,-5 -8,-11 -9,-7 -5,18 8,48 39,87 88,111 54,26 108,27 158,1 z m -30,-116 c 20,-23 16,-75 -5,-90 -41,-30 -105,-1 -105,48 0,49 79,80 110,42 z"
       id="path71" />
    <path
       d="m 10064,7209 c -22,-11 -44,-48 -44,-74 0,-25 38,-55 70,-55 17,0 39,9 50,20 23,23 27,82 7,98 -20,17 -60,22 -83,11 z"
       id="path72" />
    <path
       d="m 10186,7161 c -9,-65 -49,-111 -99,-111 -41,0 -82,30 -91,66 -6,23 -11,26 -38,20 -41,-8 -42,-9 -34,-50 9,-46 59,-93 121,-112 50,-16 52,-16 100,9 28,14 58,33 67,44 28,30 46,85 42,127 -4,45 -2,41 -35,49 -25,6 -27,4 -33,-42 z"
       id="path73" />
    <path
       d="m 10942,7680 c -18,-30 -15,-49 13,-62 21,-9 28,-8 45,7 25,22 25,37 2,58 -25,22 -44,21 -60,-3 z"
       id="path74" />
    <path
       d="m 7770,7348 c 0,-18 18,-34 28,-24 3,4 -2,14 -11,23 -16,16 -17,16 -17,1 z"
       id="path75" />
    <path
       d="m 7720,7326 c 0,-4 126,-194 136,-205 2,-2 21,4 43,14 l 39,17 -40,66 c -44,73 -79,107 -90,89 -5,-8 -17,-6 -43,6 -37,18 -45,20 -45,13 z"
       id="path76" />
    <path
       d="m 7385,7298 c -15,-14 -28,-38 -32,-60 -5,-32 -1,-41 25,-68 17,-16 40,-30 51,-30 52,0 101,48 101,100 0,12 -13,35 -29,51 -36,36 -79,38 -116,7 z m 80,-48 c 4,-6 1,-18 -6,-26 -11,-13 -14,-13 -27,0 -8,8 -11,19 -8,25 9,14 33,14 41,1 z"
       id="path77" />
    <path
       d="m 7082,6700 c -73,-18 -148,-89 -175,-166 -32,-92 15,-220 100,-274 87,-56 179,-49 268,18 122,92 133,259 24,359 -57,52 -151,79 -217,63 z m 114,-89 c 77,-35 119,-120 93,-188 -8,-21 -19,-38 -25,-38 -14,0 -74,-52 -68,-58 9,-9 -35,-19 -47,-11 -8,4 -9,3 -5,-4 8,-13 -4,-15 -28,-6 -9,3 -13,11 -9,17 3,6 1,7 -6,3 -17,-11 -75,19 -94,47 -8,13 -21,42 -27,64 -22,73 23,148 106,178 51,18 61,18 110,-4 z m 64,-240 c 0,-5 -12,-17 -27,-26 l -28,-18 24,27 c 26,28 31,31 31,17 z"
       id="path78" />
    <path
       d="m 7082,6530 c -46,-43 -38,-112 16,-143 89,-52 166,60 93,134 -35,35 -77,38 -109,9 z"
       id="path79" />
    <path
       d="m 7978,5826 c -134,-48 -198,-133 -198,-265 1,-144 119,-261 265,-261 147,0 257,112 257,262 0,114 -87,231 -195,263 -61,18 -81,18 -129,1 z m 120,-156 c 89,-40 97,-171 12,-215 -51,-26 -105,-20 -146,18 -30,28 -37,42 -41,83 -5,44 -2,54 23,83 46,54 83,62 152,31 z"
       id="path80" />
    <path
       d="m 7996,5609 c -51,-40 -24,-119 40,-119 36,0 54,11 69,41 20,38 19,46 -10,74 -30,30 -64,32 -99,4 z m 78,-35 c 8,-21 -11,-44 -36,-44 -21,0 -33,22 -24,45 7,20 52,19 60,-1 z"
       id="path81" />
    <path
       d="m 8963,5573 c 15,-2 39,-2 55,0 15,2 2,4 -28,4 -30,0 -43,-2 -27,-4 z"
       id="path82" />
    <path
       d="m 9058,5573 c 6,-2 12,-16 12,-30 0,-20 -4,-24 -20,-20 -11,3 -20,2 -20,-3 0,-4 -30,-11 -67,-14 -110,-11 -103,-4 -103,-116 v -98 l 133,-4 c 72,-2 134,-2 137,0 3,2 7,69 8,148 l 4,144 h -27 c -15,0 -24,-4 -20,-10 3,-5 1,-10 -4,-10 -6,0 -11,5 -11,10 0,6 -8,10 -17,9 -11,0 -13,-3 -5,-6 z"
       id="path83" />
    <path
       d="m 8860,5535 c 0,-19 2,-35 4,-35 2,0 6,16 8,35 2,19 0,35 -4,35 -4,0 -8,-16 -8,-35 z"
       id="path84" />
    <path
       d="m 7293,5772 c -48,-5 -83,-43 -83,-90 0,-60 30,-92 86,-92 37,0 51,6 75,29 65,66 16,163 -78,153 z m 37,-77 c 10,-12 10,-18 0,-30 -7,-8 -18,-15 -25,-15 -7,0 -18,7 -25,15 -10,12 -10,18 0,30 7,8 18,15 25,15 7,0 18,-7 25,-15 z"
       id="path85" />
    <path
       d="m 9686,5411 c -41,-64 -96,-166 -96,-177 0,-5 19,-22 41,-38 46,-32 48,-31 75,39 7,17 21,54 33,82 11,29 18,52 13,51 -12,-2 -62,14 -62,21 0,3 4,12 9,20 7,11 13,11 32,1 13,-7 27,-17 30,-22 3,-5 9,-3 12,6 4,11 -1,18 -18,22 -14,3 -29,13 -34,22 -7,12 -14,7 -35,-27 z"
       id="path86" />
    <path
       d="m 10027,5389 c -24,-14 -47,-62 -47,-97 0,-45 48,-92 95,-92 50,0 105,53 105,100 0,46 -56,100 -101,100 -19,0 -42,-5 -52,-11 z m 73,-83 c 0,-28 -24,-41 -40,-21 -16,20 -5,45 20,45 14,0 20,-7 20,-24 z"
       id="path87" />
    <path
       d="m 10413,4850 c -12,-5 -29,-22 -37,-39 -41,-79 8,-161 95,-161 40,0 99,56 99,94 0,84 -79,137 -157,106 z"
       id="path88" />
    <path
       d="m 9905,3767 c -22,-12 -42,-24 -45,-27 -3,-3 -9,-5 -15,-5 -5,0 -36,-9 -68,-20 -68,-22 -67,-11 -11,-187 32,-99 36,-106 57,-100 102,30 247,87 247,97 0,34 -99,247 -111,239 -5,-3 -6,2 -3,10 8,21 -3,20 -51,-7 z"
       id="path89" />
    <path
       d="m 10280,4007 c -31,-15 -50,-52 -50,-95 0,-48 46,-92 95,-92 51,0 95,44 95,95 0,49 -15,74 -55,91 -42,17 -53,17 -85,1 z m 70,-72 c 10,-12 10,-18 0,-30 -7,-8 -18,-15 -25,-15 -7,0 -18,7 -25,15 -10,12 -10,18 0,30 7,8 18,15 25,15 7,0 18,-7 25,-15 z"
       id="path90" />
    <path
       d="m 9259,3614 c -1,-5 -1,-13 0,-17 1,-4 -9,-3 -21,4 -18,10 -24,8 -34,-6 -7,-10 -15,-23 -17,-29 -3,-7 -11,-5 -23,6 -12,10 -28,15 -41,12 -28,-8 -25,-39 17,-184 26,-88 36,-110 49,-106 9,3 43,12 76,22 33,9 63,19 67,23 4,3 -8,66 -26,139 -30,121 -44,161 -47,136 z m -122,-61 c -9,-9 -19,-14 -23,-11 -10,10 6,28 24,28 15,0 15,-1 -1,-17 z"
       id="path91" />
    <path
       d="m 8538,3314 c -15,-15 -13,-22 28,-83 25,-36 54,-81 65,-98 l 21,-33 30,18 c 54,31 54,36 -2,116 l -52,76 -30,-26 c -29,-24 -31,-24 -49,-8 -18,16 -18,18 -3,36 21,22 14,24 -8,2 z"
       id="path92" />
    <path
       d="m 8377,7585 c -21,-6 -34,-14 -30,-19 4,-4 -3,-6 -17,-4 -17,2 -26,-2 -28,-14 -5,-27 43,-35 71,-12 18,16 20,16 8,2 -9,-13 -10,-18 -2,-18 6,0 16,10 21,23 6,15 9,17 9,6 1,-23 -23,-41 -59,-44 -17,-1 -33,-4 -36,-7 -5,-5 32,-167 39,-175 2,-2 32,0 66,4 61,6 63,7 57,32 -3,14 -15,68 -26,119 -25,121 -26,121 -73,107 z"
       id="path93" />
    <path
       d="m 11710,7189 c -41,-11 -145,-35 -230,-54 -212,-48 -424,-98 -430,-102 -2,-2 79,-87 180,-189 l 185,-184 130,1 c 72,0 152,-4 178,-10 112,-26 214,-103 266,-201 80,-150 51,-328 -75,-455 -83,-84 -167,-114 -315,-115 -144,0 -230,34 -484,188 -323,197 -484,287 -810,450 -231,116 -409,198 -511,237 l -61,24 -99,-21 c -107,-23 -135,-23 -884,-16 -289,2 -332,1 -389,-15 -88,-25 -148,-57 -208,-112 -169,-151 -136,-387 63,-450 54,-17 112,-19 694,-26 354,-4 659,-11 690,-17 387,-72 728,-223 1006,-446 107,-86 251,-239 315,-335 113,-168 215,-423 241,-598 7,-50 12,-169 12,-278 -1,-206 -9,-256 -75,-461 -108,-337 -357,-655 -705,-897 -45,-31 -87,-57 -93,-57 -6,0 -11,-4 -11,-10 0,-7 535,-10 1585,-10 h 1585 v 30 30 h -380 -380 v 141 141 l -52,-44 c -29,-23 -96,-87 -150,-140 l -97,-98 h -65 -66 l -2,264 -3,265 -131,-197 c -72,-108 -143,-218 -158,-244 -16,-27 -29,-48 -31,-48 -2,0 -1,56 2,125 4,75 2,125 -3,125 -5,0 -47,-29 -92,-65 -45,-36 -88,-65 -94,-65 -7,0 -39,25 -71,56 l -59,56 20,21 c 169,188 401,531 436,645 7,21 5,22 -53,22 h -61 v 135 135 h 129 128 l 31,98 c 17,53 37,124 46,157 23,92 76,353 76,375 0,19 -8,20 -210,20 h -210 v -216 c 0,-172 -3,-214 -12,-206 -7,6 -44,9 -83,7 -38,-1 -103,-3 -142,-4 -68,-1 -73,-2 -74,-23 -1,-13 -5,4 -9,37 -4,33 -8,248 -9,478 l -1,417 h 165 165 v -115 -115 h 231 231 l -5,308 c -6,381 -23,531 -93,832 -28,118 -139,459 -158,485 -11,16 -17,15 -84,-8 -39,-15 -97,-33 -129,-41 -32,-9 -89,-25 -127,-35 l -68,-20 6,22 c 15,51 45,196 50,242 21,197 21,195 -5,194 -13,0 -58,-9 -99,-20 z m -150,-2652 v -23 l -92,13 c -51,7 -99,11 -105,8 -7,-2 -13,2 -13,10 0,12 19,15 105,15 103,0 105,0 105,-23 z m -30,-892 v -76 l -122,3 -123,3 -3,73 -3,72 h 126 125 z"
       id="path94" />
    <path
       d="m 5165,2380 c -139,-29 -233,-131 -243,-260 -5,-79 8,-128 49,-175 52,-59 128,-94 244,-111 107,-17 141,-26 162,-46 29,-27 29,-39 -2,-68 -21,-20 -35,-23 -97,-23 -88,0 -158,21 -224,69 l -49,34 -25,-29 c -14,-16 -44,-52 -67,-79 l -42,-49 22,-20 c 49,-44 115,-83 177,-105 55,-19 85,-22 200,-22 118,0 142,3 194,23 64,26 130,86 153,139 24,58 28,153 8,206 -35,91 -103,127 -327,176 -114,25 -144,44 -134,83 18,72 158,76 268,8 l 50,-31 21,27 c 12,15 41,49 65,76 23,26 42,52 42,57 0,14 -76,67 -128,90 -82,36 -222,49 -317,30 z"
       id="path95" />
    <path
       d="m 9515,2375 c -139,-41 -214,-127 -223,-256 -8,-121 54,-210 180,-255 24,-9 91,-24 150,-34 119,-21 144,-31 153,-61 15,-47 -63,-86 -149,-75 -81,11 -147,36 -195,74 l -44,36 -40,-45 c -80,-90 -91,-107 -76,-126 28,-33 135,-94 204,-115 95,-30 274,-32 354,-4 177,61 248,282 135,415 -43,49 -110,76 -254,101 -58,10 -114,22 -125,26 -59,21 -72,69 -27,104 24,19 36,22 100,18 59,-4 87,-12 141,-40 l 67,-35 63,80 63,80 -23,18 c -48,37 -156,87 -211,99 -69,14 -189,11 -243,-5 z"
       id="path96" />
    <path
       d="m 10410,2374 c -120,-32 -211,-113 -274,-244 -41,-84 -41,-86 -40,-195 1,-123 13,-160 83,-263 151,-224 492,-247 721,-49 l 33,28 -79,83 c -44,46 -84,84 -90,85 -5,0 -21,-13 -33,-30 -13,-17 -48,-42 -78,-56 -125,-58 -263,1 -312,131 -62,167 98,346 270,302 47,-13 119,-58 119,-76 0,-5 8,-11 19,-15 14,-4 36,12 87,65 38,40 70,75 72,80 6,17 -80,89 -141,119 -107,52 -244,65 -357,35 z"
       id="path97" />
    <path
       d="m 5730,1940 v -440 h 115 115 l 2,237 3,237 139,-185 c 77,-101 159,-208 183,-236 l 45,-53 h 99 99 v 440 441 l -116,-3 -115,-3 1,-230 c 1,-197 -1,-228 -13,-215 -8,8 -81,101 -162,205 -211,270 -180,245 -297,245 h -98 z"
       id="path98" />
    <path
       d="m 6861,2232 c -44,-120 -163,-420 -271,-685 l -20,-48 126,3 126,3 27,70 27,70 h 164 164 l 26,-70 25,-70 128,-3 127,-3 -19,48 c -11,26 -71,175 -134,331 -64,156 -133,332 -154,393 l -38,109 h -125 -125 z m 222,-262 c 20,-52 39,-103 43,-112 6,-16 -2,-18 -85,-18 -50,0 -91,1 -91,3 0,2 18,51 40,110 22,58 40,111 40,118 0,26 18,-8 53,-101 z"
       id="path99" />
    <path
       d="m 7550,1940 v -440 h 115 115 v 130 c 0,119 2,134 22,160 12,17 25,30 28,30 4,0 67,-72 140,-160 l 134,-160 h 153 c 84,0 153,3 153,6 0,4 -44,55 -98,113 -54,58 -147,161 -207,229 l -108,123 79,82 c 43,45 133,137 199,205 l 120,122 h -161 -162 l -64,-72 c -35,-40 -101,-117 -146,-171 l -82,-98 v 170 171 h -115 -115 z"
       id="path100" />
    <path
       d="m 8460,1940 v -440 h 350 350 v 105 105 h -235 -235 v 65 65 h 204 c 129,0 207,4 211,10 4,6 3,51 -1,100 l -7,90 h -198 -199 l -2,33 c 0,17 -1,43 -2,57 l -1,25 230,5 230,5 3,108 3,107 h -351 -350 z"
       id="path101" />
    <path
       d="m 11244,2283 c -128,-334 -294,-746 -305,-758 -21,-21 -3,-25 114,-25 h 124 l 16,38 c 9,20 23,54 31,75 l 15,37 h 159 158 l 30,-72 30,-73 122,-3 c 76,-2 122,1 122,7 0,6 -62,167 -139,358 -76,191 -150,385 -165,431 l -28,82 h -123 -123 z m 206,-326 c 22,-59 40,-109 40,-112 0,-3 -38,-5 -85,-5 -47,0 -85,4 -85,9 0,8 47,141 71,200 5,13 12,22 14,19 3,-2 23,-52 45,-111 z"
       id="path102" />
    <path
       d="m 11900,1941 v -441 h 114 113 l 7,61 c 3,34 6,90 6,124 v 63 l 128,4 c 154,5 209,25 275,98 52,58 77,128 77,216 0,132 -70,239 -186,284 -54,22 -78,24 -296,28 l -238,4 z m 412,219 c 45,-13 68,-43 68,-87 0,-45 -18,-79 -48,-93 -14,-6 -63,-14 -109,-17 l -83,-6 v 107 106 h 68 c 37,0 84,-5 104,-10 z"
       id="path103" />
    <path
       d="m 12700,1940 v -440 h 349 c 219,0 351,4 353,10 2,5 2,52 0,105 l -3,95 h -235 -234 v 65 65 h 205 205 v 100 100 h -205 -205 v 60 60 l 233,2 232,3 3,108 3,107 h -351 -350 z"
       id="path104" />
    <path
       d="m 126,245 c -9,-26 -7,-32 5,-12 6,10 9,21 6,23 -2,3 -7,-2 -11,-11 z"
       id="path105" />
    <path
       d="m 15,200 c -3,-5 -4,-14 0,-19 3,-5 1,-12 -5,-16 -5,-3 -10,-11 -10,-18 0,-6 6,-2 14,8 8,11 11,26 8,34 -4,10 -1,12 8,6 9,-5 11,-4 6,3 -9,15 -13,15 -21,2 z"
       id="path106" />
    <path
       d="m 156,192 c -3,-5 1,-9 9,-9 8,0 12,4 9,9 -3,4 -7,8 -9,8 -2,0 -6,-4 -9,-8 z"
       id="path107" />
    <path
       d="m 56,162 c -3,-5 1,-9 9,-9 8,0 12,4 9,9 -3,4 -7,8 -9,8 -2,0 -6,-4 -9,-8 z"
       id="path108" />
    <path
       d="m 94,128 c -4,-7 -4,-10 1,-6 4,4 15,2 24,-5 14,-11 14,-10 2,6 -16,20 -18,21 -27,5 z"
       id="path109" />
    <path
       d="m 26,122 c -2,-4 4,-8 14,-8 10,0 16,4 14,8 -3,4 -9,8 -14,8 -5,0 -11,-4 -14,-8 z"
       id="path110" />
    <path
       d="m 73,90 c -1,-11 2,-22 6,-24 4,-3 7,4 6,14 -2,27 -10,33 -12,10 z"
       id="path111" />
    <path
       d="M 0,90 C 0,85 9,76 20,70 31,64 40,61 40,62 40,64 31,73 20,83 9,92 0,96 0,90 Z"
       id="path112" />
  </g>
</svg>
